{
.appVersion = "1075";
classes = (
{
code = "i j period ellipsis";
name = SMALLDOTS;
},
{
code = "i.alt j.alt period.alt ellipsis.alt";
name = BIGDOTS;
}
);
date = "2018-09-27 20:33:27 +0000";
familyName = "XXIX Grostesque";
featurePrefixes = (
{
automatic = 1;
code = "languagesystem DFLT dflt;\012languagesystem latn dflt;\012languagesystem latn ROM;\012languagesystem latn MOL;\012languagesystem latn KAZ;\012languagesystem latn TAT;\012languagesystem latn TRK;\012languagesystem latn CRT;\012languagesystem latn AZE;\012";
name = Languagesystems;
}
);
features = (
{
automatic = 1;
code = "feature ccmp;\012feature locl;\012feature subs;\012feature sinf;\012feature sups;\012feature numr;\012feature dnom;\012feature frac;\012feature ordn;\012feature lnum;\012feature pnum;\012feature tnum;\012feature onum;\012feature case;\012feature ss01;\012feature ss02;\012";
name = aalt;
},
{
automatic = 1;
code = "lookup ccmp_Other_1 {\012	@CombiningTopAccents = [acutecomb brevecomb caroncomb circumflexcomb commaturnedabovecomb dieresiscomb dotaccentcomb gravecomb hungarumlautcomb macroncomb ringcomb tildecomb];\012	@CombiningNonTopAccents = [cedillacomb ogonekcomb];\012	sub [i]' @CombiningTopAccents by [idotless];\012	sub [i]' @CombiningNonTopAccents @CombiningTopAccents by [idotless];\012} ccmp_Other_1;\012";
name = ccmp;
},
{
automatic = 1;
code = "script latn;\012language ROM;\012sub Scedilla by Scommaaccent;\012sub scedilla by scommaaccent;\012sub Tcedilla by Tcommaaccent;\012sub tcedilla by tcommaaccent;\012language MOL;\012sub Scedilla by Scommaaccent;\012sub scedilla by scommaaccent;\012sub Tcedilla by Tcommaaccent;\012sub tcedilla by tcommaaccent;\012language KAZ;\012sub i by idotaccent;\012language TAT;\012sub i by idotaccent;\012language TRK;\012sub i by idotaccent;\012language CRT;\012sub i by idotaccent;\012language AZE;\012sub i by idotaccent;\012";
name = locl;
},
{
automatic = 1;

glyphs = (
{
color = 3;
glyphname = A;
lastChange = "2018-11-01 20:11:17 +0000";
layers = (
{
layerId = "7ABB4463-F536-4E35-BA78-CBE550C7BEBE";
paths = (
{
closed = 1;
nodes = (
"165 217 LINE",
"586 217 LINE",
"586 302 LINE",
"165 302 LINE"
);
},
{
closed = 1;
nodes = (
"122 0 LINE",
"358 675 LINE SMOOTH",
"365 696 OFFCURVE",
"369 705 OFFCURVE",
"372 728 CURVE",
"376 728 LINE",
"379 705 OFFCURVE",
"383 696 OFFCURVE",
"390 675 CURVE SMOOTH",
"626 0 LINE",
"738 0 LINE",
"437 800 LINE",
"311 800 LINE",
"10 0 LINE"
);
}
);
width = 748;
},
{
layerId = "3F9681A4-5725-441D-B9D2-8C7C614AC445";
paths = (
{
closed = 1;
nodes = (
"194 200 LINE",
"583 200 LINE",
"583 279 LINE",
"194 279 LINE"
);
},
{
closed = 1;
nodes = (
"154 0 LINE",
"372 625 LINE SMOOTH",
"379 643 OFFCURVE",
"382 652 OFFCURVE",
"385 673 CURVE",
"389 673 LINE",
"391 652 OFFCURVE",
"395 643 OFFCURVE",
"401 625 CURVE SMOOTH",
"620 0 LINE",
"724 0 LINE",
"445 740 LINE",
"328 740 LINE",
"50 0 LINE"
);
}
);
width = 748;
}
);
leftKerningGroup = A;
rightKerningGroup = A;
unicode = 0041;
},
{
color = 3;
glyphname = B;
lastChange = "2018-11-01 20:11:47 +0000";
layers = (
{
background = {
paths = (
{
closed = 1;
nodes = (
"473 399 LINE",
"600 384 OFFCURVE",
"655 299 OFFCURVE",
"655 217 CURVE SMOOTH",
"655 57 OFFCURVE",
"553 0 OFFCURVE",
"374 0 CURVE SMOOTH",
"80 0 LINE",
"80 800 LINE",
"304 800 LINE SMOOTH",
"509 800 OFFCURVE",
"625 739 OFFCURVE",
"625 579 CURVE SMOOTH",
"625 502 OFFCURVE",
"578 422 OFFCURVE",
"473 403 CURVE"
);
},
{
closed = 1;
nodes = (
"359 85 LINE SMOOTH",
"482 85 OFFCURVE",
"552 119 OFFCURVE",
"552 217 CURVE SMOOTH",
"552 300 OFFCURVE",
"492 355 OFFCURVE",
"339 355 CURVE SMOOTH",
"155 355 LINE",
"180 380 LINE",
"180 60 LINE",
"155 85 LINE"
);
},
{
closed = 1;
nodes = (
"309 440 LINE SMOOTH",
"462 440 OFFCURVE",
"522 490 OFFCURVE",
"522 579 CURVE SMOOTH",
"522 677 OFFCURVE",
"445 715 OFFCURVE",
"309 715 CURVE SMOOTH",
"155 715 LINE",
"180 740 LINE",
"180 415 LINE",
"155 440 LINE"
);
}
);
};
layerId = "7ABB4463-F536-4E35-BA78-CBE550C7BEBE";
paths = (
{
closed = 1;
nodes = (
"478 409 LINE",
"609 393 OFFCURVE",
"660 307 OFFCURVE",
"660 203 CURVE SMOOTH",
"660 54 OFFCURVE",
"533 0 OFFCURVE",
"379 0 CURVE SMOOTH",
"85 0 LINE",
"85 800 LINE",
"309 800 LINE SMOOTH",
"514 800 OFFCURVE",
"630 750 OFFCURVE",
"630 590 CURVE SMOOTH",
"630 515 OFFCURVE",
"583 435 OFFCURVE",
"478 413 CURVE"
);
},
{
closed = 1;
nodes = (
"364 86 LINE SMOOTH",
"484 86 OFFCURVE",
"557 125 OFFCURVE",
"557 218 CURVE SMOOTH",
"557 309 OFFCURVE",
"501 359 OFFCURVE",
"344 359 CURVE SMOOTH",
"160 359 LINE",
"185 386 LINE",
"185 59 LINE",
"160 86 LINE"
);
},
{
closed = 1;
nodes = (
"314 449 LINE SMOOTH",
"467 449 OFFCURVE",
"527 501 OFFCURVE",
"527 590 CURVE SMOOTH",
"527 688 OFFCURVE",
"450 715 OFFCURVE",
"314 715 CURVE SMOOTH",
"160 715 LINE",
"185 740 LINE",
"185 422 LINE",
"160 449 LINE"
);
}
);
width = 705;
},
{
background = {
paths = (
{
closed = 1;
nodes = (
"473 399 LINE",
"600 384 OFFCURVE",
"655 299 OFFCURVE",
"655 217 CURVE SMOOTH",
"655 57 OFFCURVE",
"553 0 OFFCURVE",
"374 0 CURVE SMOOTH",
"80 0 LINE",
"80 800 LINE",
"304 800 LINE SMOOTH",
"509 800 OFFCURVE",
"625 739 OFFCURVE",
"625 579 CURVE SMOOTH",
"625 502 OFFCURVE",
"578 422 OFFCURVE",
"473 403 CURVE"
);
},
{
closed = 1;
nodes = (
"359 85 LINE SMOOTH",
"482 85 OFFCURVE",
"552 119 OFFCURVE",
"552 217 CURVE SMOOTH",
"552 300 OFFCURVE",
"492 355 OFFCURVE",
"339 355 CURVE SMOOTH",
"155 355 LINE",
"180 380 LINE",
"180 60 LINE",
"155 85 LINE"
);
},
{
closed = 1;
nodes = (
"309 440 LINE SMOOTH",
"462 440 OFFCURVE",
"522 490 OFFCURVE",
"522 579 CURVE SMOOTH",
"522 677 OFFCURVE",
"445 715 OFFCURVE",
"309 715 CURVE SMOOTH",
"155 715 LINE",
"180 740 LINE",
"180 415 LINE",
"155 440 LINE"
);
}
);
};
layerId = "3F9681A4-5725-441D-B9D2-8C7C614AC445";
paths = (
{
closed = 1;
nodes = (
"483 378 LINE",
"604 363 OFFCURVE",
"651 284 OFFCURVE",
"651 188 CURVE SMOOTH",
"651 50 OFFCURVE",
"534 0 OFFCURVE",
"392 0 CURVE SMOOTH",
"120 0 LINE",
"120 740 LINE",
"327 740 LINE SMOOTH",
"516 740 OFFCURVE",
"623 693 OFFCURVE",
"623 545 CURVE SMOOTH",
"623 476 OFFCURVE",
"580 402 OFFCURVE",
"483 381 CURVE"
);
},
{
closed = 1;
nodes = (
"378 79 LINE SMOOTH",
"489 79 OFFCURVE",
"556 115 OFFCURVE",
"556 201 CURVE SMOOTH",
"556 286 OFFCURVE",
"504 332 OFFCURVE",
"359 332 CURVE SMOOTH",
"190 332 LINE",
"212 356 LINE",
"212 54 LINE",
"190 79 LINE"
);
},
{
closed = 1;
nodes = (
"331 415 LINE SMOOTH",
"473 415 OFFCURVE",
"529 463 OFFCURVE",
"529 545 CURVE SMOOTH",
"529 636 OFFCURVE",
"457 661 OFFCURVE",
"331 661 CURVE SMOOTH",
"190 661 LINE",
"212 684 LINE",
"212 390 LINE",
"190 415 LINE"
);
}
);
width = 705;
}
);
leftKerningGroup = H;
leftMetricsKey = "=H";
rightKerningGroup = B;
unicode = 0042;
},
{
color = 3;
glyphname = C;
lastChange = "2018-11-01 20:12:27 +0000";
layers = (
{
layerId = "7ABB4463-F536-4E35-BA78-CBE550C7BEBE";
paths = (
{
closed = 1;
nodes = (
"55 154 OFFCURVE",
"228 -15 OFFCURVE",
"449 -15 CURVE SMOOTH",
"659 -15 OFFCURVE",
"804 131 OFFCURVE",
"808 328 CURVE",
"704 328 LINE",
"700 179 OFFCURVE",
"595 71 OFFCURVE",
"438 71 CURVE SMOOTH",
"292 71 OFFCURVE",
"163 201 OFFCURVE",
"163 404 CURVE SMOOTH",
"163 602 OFFCURVE",
"291 729 OFFCURVE",
"437 729 CURVE SMOOTH",
"594 729 OFFCURVE",
"697 621 OFFCURVE",
"701 472 CURVE",
"805 472 LINE",
"801 669 OFFCURVE",
"656 815 OFFCURVE",
"446 815 CURVE SMOOTH",
"225 815 OFFCURVE",
"55 649 OFFCURVE",
"55 404 CURVE SMOOTH"
);
}
);
width = 853;
},
{
layerId = "3F9681A4-5725-441D-B9D2-8C7C614AC445";
paths = (
{
closed = 1;
nodes = (
"85 139 OFFCURVE",
"247 -20 OFFCURVE",
"455 -20 CURVE SMOOTH",
"652 -20 OFFCURVE",
"789 117 OFFCURVE",
"793 303 CURVE",
"695 303 LINE",
"691 162 OFFCURVE",
"592 61 OFFCURVE",
"445 61 CURVE SMOOTH",
"307 61 OFFCURVE",
"186 183 OFFCURVE",
"186 374 CURVE SMOOTH",
"186 560 OFFCURVE",
"306 680 OFFCURVE",
"444 680 CURVE SMOOTH",
"591 680 OFFCURVE",
"688 578 OFFCURVE",
"692 438 CURVE",
"790 438 LINE",
"786 623 OFFCURVE",
"650 760 OFFCURVE",
"452 760 CURVE SMOOTH",
"244 760 OFFCURVE",
"85 604 OFFCURVE",
"85 374 CURVE SMOOTH"
);
}
);
width = 853;
}
);
leftKerningGroup = O;
leftMetricsKey = "=O";
rightKerningGroup = C;
unicode = 0043;
},
{
color = 3;
glyphname = D;
lastChange = "2018-11-01 20:12:47 +0000";
layers = (
{
layerId = "7ABB4463-F536-4E35-BA78-CBE550C7BEBE";
paths = (
{
closed = 1;
nodes = (
"85 800 LINE",
"338 800 LINE SMOOTH",
"602 800 OFFCURVE",
"741 660 OFFCURVE",
"741 400 CURVE SMOOTH",
"741 154 OFFCURVE",
"593 0 OFFCURVE",
"338 0 CURVE SMOOTH",
"85 0 LINE"
);
},
{
closed = 1;
nodes = (
"185 36 LINE",
"135 85 LINE",
"324 85 LINE SMOOTH",
"529 85 OFFCURVE",
"634 198 OFFCURVE",
"634 400 CURVE SMOOTH",
"634 615 OFFCURVE",
"534 715 OFFCURVE",
"324 715 CURVE SMOOTH",
"135 715 LINE",
"185 764 LINE"
);
}
);
width = 796;
},
{
layerId = "3F9681A4-5725-441D-B9D2-8C7C614AC445";
paths = (
{
closed = 1;
nodes = (
"83 740 LINE",
"317 740 LINE SMOOTH",
"562 740 OFFCURVE",
"690 611 OFFCURVE",
"690 370 CURVE SMOOTH",
"690 143 OFFCURVE",
"553 0 OFFCURVE",
"317 0 CURVE SMOOTH",
"83 0 LINE"
);
},
{
closed = 1;
nodes = (
"176 33 LINE",
"130 79 LINE",
"305 79 LINE SMOOTH",
"494 79 OFFCURVE",
"591 183 OFFCURVE",
"591 370 CURVE SMOOTH",
"591 569 OFFCURVE",
"499 662 OFFCURVE",
"305 662 CURVE SMOOTH",
"130 662 LINE",
"176 707 LINE"
);
}
);
width = 796;
}
);
leftKerningGroup = H;
leftMetricsKey = "=H";
rightKerningGroup = O;
rightMetricsKey = "=O";
unicode = 0044;
},
{
color = 3;
glyphname = E;
lastChange = "2018-11-01 20:12:57 +0000";
layers = (
{
layerId = "7ABB4463-F536-4E35-BA78-CBE550C7BEBE";
paths = (
{
closed = 1;
nodes = (
"618 0 LINE",
"618 83 LINE",
"160 83 LINE",
"185 58 LINE",
"185 387 LINE",
"160 362 LINE",
"581 362 LINE",
"581 447 LINE",
"160 447 LINE",
"185 422 LINE",
"185 742 LINE",
"160 717 LINE",
"603 717 LINE",
"603 800 LINE",
"85 800 LINE",
"85 0 LINE"
);
}
);
width = 673;
},
{
layerId = "3F9681A4-5725-441D-B9D2-8C7C614AC445";
paths = (
{
closed = 1;
nodes = (
"576 0 LINE",
"576 77 LINE",
"153 77 LINE",
"176 54 LINE",
"176 358 LINE",
"153 335 LINE",
"542 335 LINE",
"542 413 LINE",
"153 413 LINE",
"176 390 LINE",
"176 686 LINE",
"153 663 LINE",
"562 663 LINE",
"562 740 LINE",
"83 740 LINE",
"83 0 LINE"
);
}
);
width = 673;
}
);
leftKerningGroup = H;
leftMetricsKey = "=H";
rightKerningGroup = E;
unicode = 0045;
},
{
color = 3;
glyphname = F;
lastChange = "2018-11-01 20:13:07 +0000";
layers = (
{
layerId = "7ABB4463-F536-4E35-BA78-CBE550C7BEBE";
paths = (
{
closed = 1;
nodes = (
"185 0 LINE",
"185 377 LINE",
"160 352 LINE",
"581 352 LINE",
"581 437 LINE",
"160 437 LINE",
"185 412 LINE",
"185 742 LINE",
"160 717 LINE",
"603 717 LINE",
"603 800 LINE",
"85 800 LINE",
"85 0 LINE"
);
}
);
width = 638;
},
{
layerId = "3F9681A4-5725-441D-B9D2-8C7C614AC445";
paths = (
{
closed = 1;
nodes = (
"176 0 LINE",
"176 349 LINE",
"153 326 LINE",
"542 326 LINE",
"542 404 LINE",
"153 404 LINE",
"176 381 LINE",
"176 687 LINE",
"153 664 LINE",
"563 664 LINE",
"563 740 LINE",
"83 740 LINE",
"83 0 LINE"
);
}
);
width = 638;
}
);
leftKerningGroup = H;
leftMetricsKey = "=H";
rightKerningGroup = F;
unicode = 0046;
},
{
color = 3;
glyphname = G;
lastChange = "2018-11-01 20:13:27 +0000";
layers = (
{
background = {
paths = (
{
closed = 1;
nodes = (
"718 61 OFFCURVE",
"722 33 OFFCURVE",
"729 0 CURVE",
"824 0 LINE",
"813 61 OFFCURVE",
"809 117 OFFCURVE",
"809 183 CURVE SMOOTH",
"809 800 LINE",
"714 800 LINE",
"714 513 LINE",
"710 513 LINE",
"663 585 OFFCURVE",
"595 625 OFFCURVE",
"513 625 CURVE SMOOTH",
"350 625 OFFCURVE",
"255 487 OFFCURVE",
"255 307 CURVE SMOOTH",
"255 125 OFFCURVE",
"350 -15 OFFCURVE",
"518 -15 CURVE SMOOTH",
"595 -15 OFFCURVE",
"675 26 OFFCURVE",
"713 99 CURVE",
"717 99 LINE"
);
},
{
closed = 1;
nodes = (
"721 155 OFFCURVE",
"646 59 OFFCURVE",
"538 59 CURVE SMOOTH",
"431 59 OFFCURVE",
"353 151 OFFCURVE",
"353 306 CURVE SMOOTH",
"353 455 OFFCURVE",
"434 549 OFFCURVE",
"538 549 CURVE SMOOTH",
"646 549 OFFCURVE",
"721 455 OFFCURVE",
"721 306 CURVE SMOOTH"
);
}
);
};
layerId = "7ABB4463-F536-4E35-BA78-CBE550C7BEBE";
paths = (
{
closed = 1;
nodes = (
"721 157 LINE",
"721 105 OFFCURVE",
"727 52 OFFCURVE",
"737 0 CURVE",
"829 0 LINE",
"814 81 OFFCURVE",
"810 130 OFFCURVE",
"810 195 CURVE SMOOTH",
"810 389 LINE",
"346 389 LINE",
"346 304 LINE",
"745 304 LINE",
"703 345 LINE",
"703 148 OFFCURVE",
"582 71 OFFCURVE",
"446 71 CURVE SMOOTH",
"277 71 OFFCURVE",
"161 202 OFFCURVE",
"161 403 CURVE SMOOTH",
"161 602 OFFCURVE",
"290 729 OFFCURVE",
"442 729 CURVE SMOOTH",
"572 729 OFFCURVE",
"699 651 OFFCURVE",
"699 473 CURVE",
"804 473 LINE",
"804 691 OFFCURVE",
"638 815 OFFCURVE",
"446 815 CURVE SMOOTH",
"225 815 OFFCURVE",
"55 649 OFFCURVE",
"55 403 CURVE SMOOTH",
"55 154 OFFCURVE",
"214 -15 OFFCURVE",
"438 -15 CURVE SMOOTH",
"565 -15 OFFCURVE",
"664 45 OFFCURVE",
"717 157 CURVE"
);
}
);
width = 879;
},
{
background = {
paths = (
{
closed = 1;
nodes = (
"718 61 OFFCURVE",
"722 33 OFFCURVE",
"729 0 CURVE",
"824 0 LINE",
"813 61 OFFCURVE",
"809 117 OFFCURVE",
"809 183 CURVE SMOOTH",
"809 800 LINE",
"714 800 LINE",
"714 513 LINE",
"710 513 LINE",
"663 585 OFFCURVE",
"595 625 OFFCURVE",
"513 625 CURVE SMOOTH",
"350 625 OFFCURVE",
"255 487 OFFCURVE",
"255 307 CURVE SMOOTH",
"255 125 OFFCURVE",
"350 -15 OFFCURVE",
"518 -15 CURVE SMOOTH",
"595 -15 OFFCURVE",
"675 26 OFFCURVE",
"713 99 CURVE",
"717 99 LINE"
);
},
{
closed = 1;
nodes = (
"721 155 OFFCURVE",
"646 59 OFFCURVE",
"538 59 CURVE SMOOTH",
"431 59 OFFCURVE",
"353 151 OFFCURVE",
"353 306 CURVE SMOOTH",
"353 455 OFFCURVE",
"434 549 OFFCURVE",
"538 549 CURVE SMOOTH",
"646 549 OFFCURVE",
"721 455 OFFCURVE",
"721 306 CURVE SMOOTH"
);
}
);
};
layerId = "3F9681A4-5725-441D-B9D2-8C7C614AC445";
paths = (
{
closed = 1;
nodes = (
"689 142 LINE",
"689 93 OFFCURVE",
"695 43 OFFCURVE",
"704 -6 CURVE",
"791 -6 LINE",
"777 70 OFFCURVE",
"773 116 OFFCURVE",
"773 177 CURVE SMOOTH",
"773 360 LINE",
"337 360 LINE",
"337 280 LINE",
"712 280 LINE",
"672 318 LINE",
"672 133 OFFCURVE",
"559 61 OFFCURVE",
"431 61 CURVE SMOOTH",
"272 61 OFFCURVE",
"163 184 OFFCURVE",
"163 373 CURVE SMOOTH",
"163 560 OFFCURVE",
"284 679 OFFCURVE",
"427 679 CURVE SMOOTH",
"549 679 OFFCURVE",
"669 606 OFFCURVE",
"669 439 CURVE",
"767 439 LINE",
"767 643 OFFCURVE",
"611 760 OFFCURVE",
"431 760 CURVE SMOOTH",
"223 760 OFFCURVE",
"63 604 OFFCURVE",
"63 373 CURVE SMOOTH",
"63 139 OFFCURVE",
"213 -20 OFFCURVE",
"423 -20 CURVE SMOOTH",
"543 -20 OFFCURVE",
"636 36 OFFCURVE",
"685 142 CURVE"
);
}
);
width = 879;
}
);
leftKerningGroup = O;
leftMetricsKey = "=O";
rightKerningGroup = G;
unicode = 0047;
},
{
color = 3;
glyphname = H;
lastChange = "2018-11-01 20:13:44 +0000";
layers = (
{
layerId = "7ABB4463-F536-4E35-BA78-CBE550C7BEBE";
paths = (
{
closed = 1;
nodes = (
"185 0 LINE",
"185 387 LINE",
"160 362 LINE",
"641 362 LINE",
"616 387 LINE",
"616 0 LINE",
"716 0 LINE",
"716 800 LINE",
"616 800 LINE",
"616 422 LINE",
"641 447 LINE",
"160 447 LINE",
"185 422 LINE",
"185 800 LINE",
"85 800 LINE",
"85 0 LINE"
);
}
);
width = 801;
},
{
layerId = "3F9681A4-5725-441D-B9D2-8C7C614AC445";
paths = (
{
closed = 1;
nodes = (
"177 0 LINE",
"177 358 LINE",
"154 335 LINE",
"599 335 LINE",
"576 358 LINE",
"576 0 LINE",
"668 0 LINE",
"668 740 LINE",
"576 740 LINE",
"576 391 LINE",
"599 414 LINE",
"154 414 LINE",
"177 391 LINE",
"177 740 LINE",
"84 740 LINE",
"84 0 LINE"
);
}
);
width = 801;
}
);
leftKerningGroup = H;
rightKerningGroup = H;
unicode = 0048;
},
{
color = 3;
glyphname = I;
lastChange = "2018-11-01 20:14:02 +0000";
layers = (
{
layerId = "7ABB4463-F536-4E35-BA78-CBE550C7BEBE";
paths = (
{
closed = 1;
nodes = (
"626 0 LINE",
"626 88 LINE",
"363 88 LINE",
"388 61 LINE",
"388 740 LINE",
"363 715 LINE",
"623 715 LINE",
"623 800 LINE",
"53 800 LINE",
"53 715 LINE",
"313 715 LINE",
"288 740 LINE",
"288 61 LINE",
"313 88 LINE",
"50 88 LINE",
"50 0 LINE"
);
}
);
width = 676;
},
{
layerId = "3F9681A4-5725-441D-B9D2-8C7C614AC445";
paths = (
{
closed = 1;
nodes = (
"520 0 LINE",
"520 81 LINE",
"341 81 LINE",
"364 56 LINE",
"364 684 LINE",
"341 661 LINE",
"517 661 LINE",
"517 740 LINE",
"119 740 LINE",
"119 661 LINE",
"295 661 LINE",
"272 684 LINE",
"272 56 LINE",
"295 81 LINE",
"116 81 LINE",
"116 0 LINE"
);
}
);
width = 676;
}
);
leftKerningGroup = H;
rightKerningGroup = H;
unicode = 0049;
},
{
color = 3;
glyphname = J;
lastChange = "2018-11-01 20:14:40 +0000";
layers = (
{
layerId = "7ABB4463-F536-4E35-BA78-CBE550C7BEBE";
paths = (
{
closed = 1;
nodes = (
"191 0 LINE SMOOTH",
"293 0 OFFCURVE",
"349 61 OFFCURVE",
"349 169 CURVE SMOOTH",
"349 800 LINE",
"249 800 LINE",
"249 171 LINE SMOOTH",
"249 106 OFFCURVE",
"233 88 OFFCURVE",
"169 88 CURVE SMOOTH",
"25 88 LINE",
"25 0 LINE"
);
}
);
width = 429;
},
{
layerId = "3F9681A4-5725-441D-B9D2-8C7C614AC445";
paths = (
{
closed = 1;
nodes = (
"182 0 LINE SMOOTH",
"277 0 OFFCURVE",
"329 57 OFFCURVE",
"329 157 CURVE SMOOTH",
"329 740 LINE",
"236 740 LINE",
"236 159 LINE SMOOTH",
"236 98 OFFCURVE",
"221 82 OFFCURVE",
"162 82 CURVE SMOOTH",
"28 82 LINE",
"28 0 LINE"
);
}
);
width = 429;
}
);
leftKerningGroup = J;
rightKerningGroup = U;
rightMetricsKey = "=U";
unicode = 004A;
},
{
color = 3;
glyphname = K;
lastChange = "2018-11-01 20:14:52 +0000";
layers = (
{
background = {
paths = (
{
closed = 1;
nodes = (
"180 0 LINE",
"180 313 LINE",
"149 235 LINE",
"338 443 LINE",
"342 443 LINE",
"589 0 LINE",
"700 0 LINE",
"407 512 LINE",
"407 516 LINE",
"669 800 LINE",
"544 800 LINE",
"184 398 LINE",
"180 398.208 LINE",
"180 800 LINE",
"80 800 LINE",
"80 0 LINE"
);
}
);
};
layerId = "7ABB4463-F536-4E35-BA78-CBE550C7BEBE";
paths = (
{
closed = 1;
nodes = (
"185 0 LINE",
"185 313 LINE",
"154 235 LINE",
"343 443 LINE",
"347 443 LINE",
"594 0 LINE",
"705 0 LINE",
"412 512 LINE",
"412 516 LINE",
"674 800 LINE",
"549 800 LINE",
"177 384 LINE",
"174 387 LINE",
"182 401 OFFCURVE",
"185 415 OFFCURVE",
"185 437 CURVE SMOOTH",
"185 800 LINE",
"85 800 LINE",
"85 0 LINE"
);
}
);
width = 700;
},
{
background = {
paths = (
{
closed = 1;
nodes = (
"180 0 LINE",
"180 313 LINE",
"149 235 LINE",
"338 443 LINE",
"342 443 LINE",
"589 0 LINE",
"700 0 LINE",
"407 512 LINE",
"407 516 LINE",
"669 800 LINE",
"544 800 LINE",
"184 398 LINE",
"180 398.208 LINE",
"180 800 LINE",
"80 800 LINE",
"80 0 LINE"
);
}
);
};
layerId = "3F9681A4-5725-441D-B9D2-8C7C614AC445";
paths = (
{
closed = 1;
nodes = (
"177 0 LINE",
"177 289 LINE",
"148 217 LINE",
"323 410 LINE",
"326 410 LINE",
"555 0 LINE",
"657 0 LINE",
"386 473 LINE",
"386 477 LINE",
"629 740 LINE",
"513 740 LINE",
"169 355 LINE",
"166 358 LINE",
"174 371 OFFCURVE",
"177 384 OFFCURVE",
"177 404 CURVE SMOOTH",
"177 740 LINE",
"84 740 LINE",
"84 0 LINE"
);
}
);
width = 700;
}
);
leftKerningGroup = H;
leftMetricsKey = "=H";
rightKerningGroup = K;
unicode = 004B;
},
{
color = 3;
glyphname = L;
lastChange = "2018-11-01 20:15:04 +0000";
layers = (
{
layerId = "7ABB4463-F536-4E35-BA78-CBE550C7BEBE";
paths = (
{
closed = 1;
nodes = (
"603 0 LINE",
"603 88 LINE",
"160 88 LINE",
"185 63 LINE",
"185 800 LINE",
"85 800 LINE",
"85 0 LINE"
);
}
);
width = 613;
},
{
layerId = "3F9681A4-5725-441D-B9D2-8C7C614AC445";
paths = (
{
closed = 1;
nodes = (
"563 0 LINE",
"563 81 LINE",
"153 81 LINE",
"177 58 LINE",
"177 740 LINE",
"84 740 LINE",
"84 0 LINE"
);
}
);
width = 613;
}
);
leftKerningGroup = H;
leftMetricsKey = "=H";
rightKerningGroup = L;
unicode = 004C;
},
{
color = 3;
glyphname = M;
lastChange = "2018-11-01 20:15:15 +0000";
layers = (
{
layerId = "7ABB4463-F536-4E35-BA78-CBE550C7BEBE";
paths = (
{
closed = 1;
nodes = (
"181 0 LINE",
"181 623 LINE SMOOTH",
"181 648 OFFCURVE",
"178 657 OFFCURVE",
"174 670 CURVE",
"180 672 LINE",
"436 0 LINE",
"562 0 LINE",
"818 672 LINE",
"824 670 LINE",
"820 657 OFFCURVE",
"817 648 OFFCURVE",
"817 623 CURVE SMOOTH",
"817 0 LINE",
"913 0 LINE",
"913 800 LINE",
"771 800 LINE",
"515 140 LINE SMOOTH",
"507 119 OFFCURVE",
"504 110 OFFCURVE",
"501 87 CURVE",
"497 87 LINE",
"494 110 OFFCURVE",
"491 119 OFFCURVE",
"483 140 CURVE SMOOTH",
"227 800 LINE",
"85 800 LINE",
"85 0 LINE"
);
}
);
width = 998;
},
{
layerId = "3F9681A4-5725-441D-B9D2-8C7C614AC445";
paths = (
{
closed = 1;
nodes = (
"173 0 LINE",
"173 576 LINE SMOOTH",
"173 600 OFFCURVE",
"170 608 OFFCURVE",
"166 620 CURVE",
"172 622 LINE",
"409 0 LINE",
"525 0 LINE",
"762 622 LINE",
"768 620 LINE",
"764 608 OFFCURVE",
"761 600 OFFCURVE",
"761 576 CURVE SMOOTH",
"761 0 LINE",
"850 0 LINE",
"850 740 LINE",
"719 740 LINE",
"482 130 LINE SMOOTH",
"475 110 OFFCURVE",
"472 102 OFFCURVE",
"469 81 CURVE",
"465 81 LINE",
"463 102 OFFCURVE",
"460 110 OFFCURVE",
"452 130 CURVE SMOOTH",
"215 740 LINE",
"84 740 LINE",
"84 0 LINE"
);
}
);
width = 998;
}
);
leftKerningGroup = H;
leftMetricsKey = "=H";
rightKerningGroup = H;
rightMetricsKey = "=H";
unicode = 004D;
},
{
color = 3;
glyphname = N;
lastChange = "2018-11-01 20:15:23 +0000";
layers = (
{
layerId = "7ABB4463-F536-4E35-BA78-CBE550C7BEBE";
paths = (
{
closed = 1;
nodes = (
"185 0 LINE",
"185 649 LINE SMOOTH",
"185 668 OFFCURVE",
"182 683 OFFCURVE",
"178 696 CURVE",
"184 698 LINE",
"189 683 OFFCURVE",
"195 668 OFFCURVE",
"205 651 CURVE SMOOTH",
"588 0 LINE",
"724 0 LINE",
"724 800 LINE",
"624 800 LINE",
"624 146 LINE SMOOTH",
"624 127 OFFCURVE",
"627 112 OFFCURVE",
"631 99 CURVE",
"625 97 LINE",
"620 112 OFFCURVE",
"614 127 OFFCURVE",
"604 144 CURVE SMOOTH",
"218 800 LINE",
"85 800 LINE",
"85 0 LINE"
);
}
);
width = 809;
},
{
layerId = "3F9681A4-5725-441D-B9D2-8C7C614AC445";
paths = (
{
closed = 1;
nodes = (
"177 0 LINE",
"177 600 LINE SMOOTH",
"177 618 OFFCURVE",
"174 632 OFFCURVE",
"170 644 CURVE",
"176 646 LINE",
"180 632 OFFCURVE",
"186 618 OFFCURVE",
"195 602 CURVE SMOOTH",
"549 0 LINE",
"675 0 LINE",
"675 740 LINE",
"583 740 LINE",
"583 135 LINE SMOOTH",
"583 117 OFFCURVE",
"585 104 OFFCURVE",
"589 92 CURVE",
"584 90 LINE",
"579 104 OFFCURVE",
"573 117 OFFCURVE",
"564 133 CURVE SMOOTH",
"207 740 LINE",
"84 740 LINE",
"84 0 LINE"
);
}
);
width = 809;
}
);
leftKerningGroup = H;
leftMetricsKey = "=H";
rightKerningGroup = H;
rightMetricsKey = "=H";
unicode = 004E;
},
{
color = 3;
glyphname = O;
lastChange = "2018-11-01 20:15:48 +0000";
layers = (
{
layerId = "7ABB4463-F536-4E35-BA78-CBE550C7BEBE";
paths = (
{
closed = 1;
nodes = (
"662 -15 OFFCURVE",
"807 154 OFFCURVE",
"807 403 CURVE SMOOTH",
"807 649 OFFCURVE",
"662 815 OFFCURVE",
"430 815 CURVE SMOOTH",
"209 815 OFFCURVE",
"55 649 OFFCURVE",
"55 403 CURVE SMOOTH",
"55 154 OFFCURVE",
"209 -15 OFFCURVE",
"430 -15 CURVE SMOOTH"
);
},
{
closed = 1;
nodes = (
"279 71 OFFCURVE",
"163 202 OFFCURVE",
"163 403 CURVE SMOOTH",
"163 602 OFFCURVE",
"279 729 OFFCURVE",
"430 729 CURVE SMOOTH",
"592 729 OFFCURVE",
"699 602 OFFCURVE",
"699 403 CURVE SMOOTH",
"699 201 OFFCURVE",
"592 71 OFFCURVE",
"430 71 CURVE SMOOTH"
);
}
);
width = 862;
},
{
layerId = "3F9681A4-5725-441D-B9D2-8C7C614AC445";
paths = (
{
closed = 1;
nodes = (
"633 -20 OFFCURVE",
"769 139 OFFCURVE",
"769 373 CURVE SMOOTH",
"769 604 OFFCURVE",
"633 760 OFFCURVE",
"415 760 CURVE SMOOTH",
"207 760 OFFCURVE",
"62 604 OFFCURVE",
"62 373 CURVE SMOOTH",
"62 139 OFFCURVE",
"207 -20 OFFCURVE",
"415 -20 CURVE SMOOTH"
);
},
{
closed = 1;
nodes = (
"273 61 OFFCURVE",
"164 184 OFFCURVE",
"164 373 CURVE SMOOTH",
"164 560 OFFCURVE",
"273 679 OFFCURVE",
"415 679 CURVE SMOOTH",
"567 679 OFFCURVE",
"667 560 OFFCURVE",
"667 373 CURVE SMOOTH",
"667 183 OFFCURVE",
"567 61 OFFCURVE",
"415 61 CURVE SMOOTH"
);
}
);
width = 862;
}
);
leftKerningGroup = O;
rightKerningGroup = O;
unicode = 004F;
},
{
color = 3;
glyphname = P;
lastChange = "2018-11-01 20:16:10 +0000";
layers = (
{
background = {
paths = (
{
closed = 1;
nodes = (
"334 800 LINE SMOOTH",
"528 800 OFFCURVE",
"655 754 OFFCURVE",
"655 559 CURVE SMOOTH",
"655 373 OFFCURVE",
"529 315 OFFCURVE",
"328 315 CURVE SMOOTH",
"155 315 LINE",
"180 340 LINE",
"180 0 LINE",
"80 0 LINE",
"80 800 LINE"
);
},
{
closed = 1;
nodes = (
"180 372 LINE",
"155 400 LINE",
"339 400 LINE SMOOTH",
"471 400 OFFCURVE",
"552 429 OFFCURVE",
"552 559 CURVE SMOOTH",
"552 687 OFFCURVE",
"474 715 OFFCURVE",
"339 715 CURVE SMOOTH",
"155 715 LINE",
"180 743 LINE"
);
}
);
};
layerId = "7ABB4463-F536-4E35-BA78-CBE550C7BEBE";
paths = (
{
closed = 1;
nodes = (
"339 800 LINE SMOOTH",
"544 800 OFFCURVE",
"660 735 OFFCURVE",
"660 561 CURVE SMOOTH",
"660 405 OFFCURVE",
"568 315 OFFCURVE",
"333 315 CURVE SMOOTH",
"160 315 LINE",
"185 340 LINE",
"185 0 LINE",
"85 0 LINE",
"85 800 LINE"
);
},
{
closed = 1;
nodes = (
"185 372 LINE",
"160 400 LINE",
"344 400 LINE SMOOTH",
"497 400 OFFCURVE",
"557 459 OFFCURVE",
"557 561 CURVE SMOOTH",
"557 673 OFFCURVE",
"480 715 OFFCURVE",
"344 715 CURVE SMOOTH",
"160 715 LINE",
"185 743 LINE"
);
}
);
width = 695;
},
{
background = {
paths = (
{
closed = 1;
nodes = (
"334 800 LINE SMOOTH",
"528 800 OFFCURVE",
"655 754 OFFCURVE",
"655 559 CURVE SMOOTH",
"655 373 OFFCURVE",
"529 315 OFFCURVE",
"328 315 CURVE SMOOTH",
"155 315 LINE",
"180 340 LINE",
"180 0 LINE",
"80 0 LINE",
"80 800 LINE"
);
},
{
closed = 1;
nodes = (
"180 372 LINE",
"155 400 LINE",
"339 400 LINE SMOOTH",
"471 400 OFFCURVE",
"552 429 OFFCURVE",
"552 559 CURVE SMOOTH",
"552 687 OFFCURVE",
"474 715 OFFCURVE",
"339 715 CURVE SMOOTH",
"155 715 LINE",
"180 743 LINE"
);
}
);
};
layerId = "3F9681A4-5725-441D-B9D2-8C7C614AC445";
paths = (
{
closed = 1;
nodes = (
"319 740 LINE SMOOTH",
"509 740 OFFCURVE",
"616 680 OFFCURVE",
"616 519 CURVE SMOOTH",
"616 375 OFFCURVE",
"531 291 OFFCURVE",
"313 291 CURVE SMOOTH",
"153 291 LINE",
"176 315 LINE",
"176 0 LINE",
"84 0 LINE",
"84 740 LINE"
);
},
{
closed = 1;
nodes = (
"176 344 LINE",
"153 370 LINE",
"324 370 LINE SMOOTH",
"465 370 OFFCURVE",
"521 425 OFFCURVE",
"521 519 CURVE SMOOTH",
"521 623 OFFCURVE",
"449 662 OFFCURVE",
"324 662 CURVE SMOOTH",
"153 662 LINE",
"176 688 LINE"
);
}
);
width = 695;
}
);
leftKerningGroup = H;
leftMetricsKey = "=H";
rightKerningGroup = P;
unicode = 0050;
},
{
color = 3;
glyphname = Q;
lastChange = "2018-11-01 20:16:52 +0000";
layers = (
{
layerId = "7ABB4463-F536-4E35-BA78-CBE550C7BEBE";
paths = (
{
closed = 1;
nodes = (
"55 154 OFFCURVE",
"209 -15 OFFCURVE",
"430 -15 CURVE SMOOTH",
"527 -15 OFFCURVE",
"609 15 OFFCURVE",
"672 68 CURVE",
"676 68 LINE",
"736 0 LINE",
"861 0 LINE",
"733 132 LINE",
"733 136 LINE",
"781 206 OFFCURVE",
"807 297 OFFCURVE",
"807 403 CURVE SMOOTH",
"807 649 OFFCURVE",
"662 815 OFFCURVE",
"430 815 CURVE SMOOTH",
"209 815 OFFCURVE",
"55 649 OFFCURVE",
"55 403 CURVE SMOOTH"
);
},
{
closed = 1;
nodes = (
"163 602 OFFCURVE",
"279 729 OFFCURVE",
"430 729 CURVE SMOOTH",
"592 729 OFFCURVE",
"699 602 OFFCURVE",
"699 403 CURVE SMOOTH",
"699 330 OFFCURVE",
"685 266 OFFCURVE",
"659 214 CURVE",
"655 214 LINE",
"459 426 LINE",
"392 363 LINE",
"605 143 LINE",
"605 139 LINE",
"559 95 OFFCURVE",
"500 71 OFFCURVE",
"430 71 CURVE SMOOTH",
"279 71 OFFCURVE",
"163 202 OFFCURVE",
"163 403 CURVE SMOOTH"
);
}
);
width = 866;
},
{
layerId = "3F9681A4-5725-441D-B9D2-8C7C614AC445";
paths = (
{
closed = 1;
nodes = (
"63 139 OFFCURVE",
"208 -20 OFFCURVE",
"415 -20 CURVE SMOOTH",
"506 -20 OFFCURVE",
"583 8 OFFCURVE",
"642 58 CURVE",
"646 58 LINE",
"703 -6 LINE",
"820 -6 LINE",
"700 118 LINE",
"700 122 LINE",
"745 187 OFFCURVE",
"769 273 OFFCURVE",
"769 372 CURVE SMOOTH",
"769 603 OFFCURVE",
"633 759 OFFCURVE",
"415 759 CURVE SMOOTH",
"208 759 OFFCURVE",
"63 603 OFFCURVE",
"63 372 CURVE SMOOTH"
);
},
{
closed = 1;
nodes = (
"165 559 OFFCURVE",
"274 678 OFFCURVE",
"415 678 CURVE SMOOTH",
"567 678 OFFCURVE",
"668 559 OFFCURVE",
"668 372 CURVE SMOOTH",
"668 304 OFFCURVE",
"655 244 OFFCURVE",
"630 195 CURVE",
"626 195 LINE",
"443 394 LINE",
"380 335 LINE",
"580 128 LINE",
"580 125 LINE",
"536 83 OFFCURVE",
"481 61 OFFCURVE",
"415 61 CURVE SMOOTH",
"274 61 OFFCURVE",
"165 184 OFFCURVE",
"165 372 CURVE SMOOTH"
);
}
);
width = 866;
}
);
leftKerningGroup = O;
leftMetricsKey = "=O";
rightKerningGroup = O;
unicode = 0051;
},
{
color = 3;
glyphname = R;
lastChange = "2018-11-01 20:17:13 +0000";
layers = (
{
background = {
paths = (
{
closed = 1;
nodes = (
"80 800 LINE",
"334 800 LINE SMOOTH",
"539 800 OFFCURVE",
"655 734 OFFCURVE",
"655 564 CURVE SMOOTH",
"655 458 OFFCURVE",
"609 387 OFFCURVE",
"502 352 CURVE",
"502 348 LINE",
"546 338 OFFCURVE",
"561 304 OFFCURVE",
"575 257 CURVE SMOOTH",
"654 0 LINE",
"546 0 LINE",
"465 279 LINE SMOOTH",
"454 318 OFFCURVE",
"437 325 OFFCURVE",
"381 325 CURVE SMOOTH",
"155 325 LINE",
"180 350 LINE",
"180 0 LINE",
"80 0 LINE"
);
},
{
closed = 1;
nodes = (
"339 410 LINE SMOOTH",
"492 410 OFFCURVE",
"554 460 OFFCURVE",
"554 564 CURVE SMOOTH",
"554 672 OFFCURVE",
"475 715 OFFCURVE",
"339 715 CURVE SMOOTH",
"155 715 LINE",
"180 740 LINE",
"180 385 LINE",
"155 410 LINE"
);
}
);
};
layerId = "7ABB4463-F536-4E35-BA78-CBE550C7BEBE";
paths = (
{
closed = 1;
nodes = (
"85 800 LINE",
"339 800 LINE SMOOTH",
"544 800 OFFCURVE",
"658 734 OFFCURVE",
"660 569 CURVE SMOOTH",
"661 458 OFFCURVE",
"634 396 OFFCURVE",
"527 352 CURVE",
"527 348 LINE",
"571 338 OFFCURVE",
"586 304 OFFCURVE",
"600 257 CURVE SMOOTH",
"679 0 LINE",
"571 0 LINE",
"490 279 LINE SMOOTH",
"479 318 OFFCURVE",
"462 325 OFFCURVE",
"406 325 CURVE SMOOTH",
"160 325 LINE",
"185 350 LINE",
"185 0 LINE",
"85 0 LINE"
);
},
{
closed = 1;
nodes = (
"344 410 LINE SMOOTH",
"497 410 OFFCURVE",
"559 460 OFFCURVE",
"559 564 CURVE SMOOTH",
"559 672 OFFCURVE",
"480 715 OFFCURVE",
"344 715 CURVE SMOOTH",
"160 715 LINE",
"185 740 LINE",
"185 385 LINE",
"160 410 LINE"
);
}
);
width = 709;
},
{
background = {
paths = (
{
closed = 1;
nodes = (
"80 800 LINE",
"334 800 LINE SMOOTH",
"539 800 OFFCURVE",
"655 734 OFFCURVE",
"655 564 CURVE SMOOTH",
"655 458 OFFCURVE",
"609 387 OFFCURVE",
"502 352 CURVE",
"502 348 LINE",
"546 338 OFFCURVE",
"561 304 OFFCURVE",
"575 257 CURVE SMOOTH",
"654 0 LINE",
"546 0 LINE",
"465 279 LINE SMOOTH",
"454 318 OFFCURVE",
"437 325 OFFCURVE",
"381 325 CURVE SMOOTH",
"155 325 LINE",
"180 350 LINE",
"180 0 LINE",
"80 0 LINE"
);
},
{
closed = 1;
nodes = (
"339 410 LINE SMOOTH",
"492 410 OFFCURVE",
"554 460 OFFCURVE",
"554 564 CURVE SMOOTH",
"554 672 OFFCURVE",
"475 715 OFFCURVE",
"339 715 CURVE SMOOTH",
"155 715 LINE",
"180 740 LINE",
"180 385 LINE",
"155 410 LINE"
);
}
);
};
layerId = "3F9681A4-5725-441D-B9D2-8C7C614AC445";
paths = (
{
closed = 1;
nodes = (
"82 740 LINE",
"317 740 LINE SMOOTH",
"507 740 OFFCURVE",
"612 679 OFFCURVE",
"614 526 CURVE SMOOTH",
"615 424 OFFCURVE",
"590 366 OFFCURVE",
"491 326 CURVE",
"491 322 LINE",
"532 313 OFFCURVE",
"546 281 OFFCURVE",
"558 238 CURVE SMOOTH",
"632 0 LINE",
"532 0 LINE",
"457 258 LINE SMOOTH",
"447 294 OFFCURVE",
"431 301 OFFCURVE",
"379 301 CURVE SMOOTH",
"151 301 LINE",
"175 324 LINE",
"175 0 LINE",
"82 0 LINE"
);
},
{
closed = 1;
nodes = (
"322 379 LINE SMOOTH",
"463 379 OFFCURVE",
"521 426 OFFCURVE",
"521 522 CURVE SMOOTH",
"521 622 OFFCURVE",
"447 661 OFFCURVE",
"322 661 CURVE SMOOTH",
"151 661 LINE",
"175 685 LINE",
"175 356 LINE",
"151 379 LINE"
);
}
);
width = 709;
}
);
leftKerningGroup = H;
leftMetricsKey = "=H";
rightKerningGroup = R;
unicode = 0052;
},
{
color = 3;
glyphname = S;
lastChange = "2018-11-01 20:17:30 +0000";
layers = (
{
layerId = "7ABB4463-F536-4E35-BA78-CBE550C7BEBE";
paths = (
{
closed = 1;
nodes = (
"548 -15 OFFCURVE",
"669 78 OFFCURVE",
"669 232 CURVE SMOOTH",
"669 335 OFFCURVE",
"606 416 OFFCURVE",
"458 437 CURVE SMOOTH",
"305 459 LINE SMOOTH",
"198 473 OFFCURVE",
"157 519 OFFCURVE",
"157 581 CURVE SMOOTH",
"157 671 OFFCURVE",
"234 731 OFFCURVE",
"343 731 CURVE SMOOTH",
"487 731 OFFCURVE",
"567 640 OFFCURVE",
"567 517 CURVE",
"666 517 LINE",
"666 707 OFFCURVE",
"526 815 OFFCURVE",
"348 815 CURVE SMOOTH",
"156 815 OFFCURVE",
"50 700 OFFCURVE",
"50 577 CURVE SMOOTH",
"50 483 OFFCURVE",
"119 394 OFFCURVE",
"288 370 CURVE SMOOTH",
"439 349 LINE SMOOTH",
"535 337 OFFCURVE",
"568 286 OFFCURVE",
"568 232 CURVE SMOOTH",
"568 138 OFFCURVE",
"489 72 OFFCURVE",
"379 72 CURVE SMOOTH",
"260 72 OFFCURVE",
"153 146 OFFCURVE",
"153 287 CURVE",
"56 287 LINE",
"56 115 OFFCURVE",
"174 -15 OFFCURVE",
"371 -15 CURVE SMOOTH"
);
}
);
width = 718;
},
{
layerId = "3F9681A4-5725-441D-B9D2-8C7C614AC445";
paths = (
{
closed = 1;
nodes = (
"524 -20 OFFCURVE",
"638 67 OFFCURVE",
"638 212 CURVE SMOOTH",
"638 309 OFFCURVE",
"579 385 OFFCURVE",
"440 405 CURVE SMOOTH",
"296 426 LINE SMOOTH",
"195 440 OFFCURVE",
"157 482 OFFCURVE",
"157 540 CURVE SMOOTH",
"157 625 OFFCURVE",
"229 681 OFFCURVE",
"332 681 CURVE SMOOTH",
"467 681 OFFCURVE",
"542 596 OFFCURVE",
"542 480 CURVE",
"635 480 LINE",
"635 659 OFFCURVE",
"504 760 OFFCURVE",
"336 760 CURVE SMOOTH",
"156 760 OFFCURVE",
"56 652 OFFCURVE",
"56 537 CURVE SMOOTH",
"56 448 OFFCURVE",
"121 365 OFFCURVE",
"280 342 CURVE SMOOTH",
"422 322 LINE SMOOTH",
"512 310 OFFCURVE",
"543 263 OFFCURVE",
"543 212 CURVE SMOOTH",
"543 124 OFFCURVE",
"469 62 OFFCURVE",
"365 62 CURVE SMOOTH",
"253 62 OFFCURVE",
"153 131 OFFCURVE",
"153 264 CURVE",
"62 264 LINE",
"62 102 OFFCURVE",
"173 -20 OFFCURVE",
"358 -20 CURVE SMOOTH"
);
}
);
width = 718;
}
);
leftKerningGroup = S;
rightKerningGroup = S;
unicode = 0053;
},
{
color = 3;
glyphname = T;
lastChange = "2018-11-01 20:17:44 +0000";
layers = (
{
layerId = "7ABB4463-F536-4E35-BA78-CBE550C7BEBE";
paths = (
{
closed = 1;
nodes = (
"315 715 LINE",
"284 750 LINE",
"284 0 LINE",
"384 0 LINE",
"384 750 LINE",
"352 715 LINE",
"651 715 LINE",
"651 800 LINE",
"15 800 LINE",
"15 715 LINE"
);
}
);
width = 666;
},
{
layerId = "3F9681A4-5725-441D-B9D2-8C7C614AC445";
paths = (
{
closed = 1;
nodes = (
"303 662 LINE",
"275 694 LINE",
"275 0 LINE",
"367 0 LINE",
"367 694 LINE",
"337 662 LINE",
"614 662 LINE",
"614 740 LINE",
"26 740 LINE",
"26 662 LINE"
);
}
);
width = 666;
}
);
leftKerningGroup = T;
rightKerningGroup = T;
unicode = 0054;
},
{
color = 3;
glyphname = U;
lastChange = "2018-11-01 20:18:03 +0000";
layers = (
{
layerId = "7ABB4463-F536-4E35-BA78-CBE550C7BEBE";
paths = (
{
closed = 1;
nodes = (
"180 162 OFFCURVE",
"258 72 OFFCURVE",
"397 72 CURVE SMOOTH",
"541 72 OFFCURVE",
"610 162 OFFCURVE",
"610 323 CURVE SMOOTH",
"610 800 LINE",
"710 800 LINE",
"710 312 LINE SMOOTH",
"710 68 OFFCURVE",
"574 -15 OFFCURVE",
"397 -15 CURVE SMOOTH",
"224 -15 OFFCURVE",
"80 68 OFFCURVE",
"80 312 CURVE SMOOTH",
"80 800 LINE",
"180 800 LINE",
"180 323 LINE SMOOTH"
);
}
);
width = 790;
},
{
layerId = "3F9681A4-5725-441D-B9D2-8C7C614AC445";
paths = (
{
closed = 1;
nodes = (
"176 145 OFFCURVE",
"249 61 OFFCURVE",
"379 61 CURVE SMOOTH",
"513 61 OFFCURVE",
"577 145 OFFCURVE",
"577 295 CURVE SMOOTH",
"577 740 LINE",
"670 740 LINE",
"670 285 LINE SMOOTH",
"670 57 OFFCURVE",
"544 -20 OFFCURVE",
"379 -20 CURVE SMOOTH",
"217 -20 OFFCURVE",
"83 57 OFFCURVE",
"83 285 CURVE SMOOTH",
"83 740 LINE",
"176 740 LINE",
"176 295 LINE SMOOTH"
);
}
);
width = 790;
}
);
leftKerningGroup = U;
rightKerningGroup = U;
unicode = 0055;
},
{
color = 3;
glyphname = V;
lastChange = "2018-11-01 20:18:23 +0000";
layers = (
{
layerId = "7ABB4463-F536-4E35-BA78-CBE550C7BEBE";
paths = (
{
closed = 1;
nodes = (
"311 0 LINE",
"437 0 LINE",
"738 800 LINE",
"626 800 LINE",
"390 125 LINE SMOOTH",
"383 104 OFFCURVE",
"379 95 OFFCURVE",
"376 72 CURVE",
"372 72 LINE",
"369 95 OFFCURVE",
"365 104 OFFCURVE",
"358 125 CURVE SMOOTH",
"122 800 LINE",
"10 800 LINE"
);
}
);
width = 748;
},
{
layerId = "3F9681A4-5725-441D-B9D2-8C7C614AC445";
paths = (
{
closed = 1;
nodes = (
"295 0 LINE",
"411 0 LINE",
"690 740 LINE",
"586 740 LINE",
"368 116 LINE SMOOTH",
"361 96 OFFCURVE",
"358 88 OFFCURVE",
"355 67 CURVE",
"351 67 LINE",
"348 88 OFFCURVE",
"345 96 OFFCURVE",
"338 116 CURVE SMOOTH",
"120 740 LINE",
"16 740 LINE"
);
}
);
width = 748;
}
);
leftKerningGroup = V;
rightKerningGroup = V;
unicode = 0056;
},
{
color = 3;
glyphname = W;
lastChange = "2018-11-01 20:18:34 +0000";
layers = (
{
layerId = "7ABB4463-F536-4E35-BA78-CBE550C7BEBE";
paths = (
{
closed = 1;
nodes = (
"245 0 LINE",
"369 0 LINE",
"535 632 LINE SMOOTH",
"539 647 OFFCURVE",
"542 659 OFFCURVE",
"543 675 CURVE",
"546 675 LINE",
"547 659 OFFCURVE",
"550 647 OFFCURVE",
"554 632 CURVE SMOOTH",
"721 0 LINE",
"845 0 LINE",
"1075 800 LINE",
"973 800 LINE",
"799 154 LINE SMOOTH",
"793 131 OFFCURVE",
"788 121 OFFCURVE",
"785 96 CURVE",
"781 96 LINE",
"778 121 OFFCURVE",
"773 131 OFFCURVE",
"767 154 CURVE SMOOTH",
"600 800 LINE",
"489 800 LINE",
"323 154 LINE SMOOTH",
"317 131 OFFCURVE",
"312 121 OFFCURVE",
"309 96 CURVE",
"305 96 LINE",
"302 121 OFFCURVE",
"297 131 OFFCURVE",
"291 154 CURVE SMOOTH",
"117 800 LINE",
"15 800 LINE"
);
}
);
width = 1090;
},
{
layerId = "3F9681A4-5725-441D-B9D2-8C7C614AC445";
paths = (
{
closed = 1;
nodes = (
"234 0 LINE",
"349 0 LINE",
"502 585 LINE SMOOTH",
"506 599 OFFCURVE",
"509 610 OFFCURVE",
"510 625 CURVE",
"512 625 LINE",
"513 610 OFFCURVE",
"516 599 OFFCURVE",
"520 585 CURVE SMOOTH",
"674 0 LINE",
"789 0 LINE",
"1002 740 LINE",
"907 740 LINE",
"746 143 LINE SMOOTH",
"741 121 OFFCURVE",
"736 112 OFFCURVE",
"733 89 CURVE",
"730 89 LINE",
"727 112 OFFCURVE",
"722 121 OFFCURVE",
"717 143 CURVE SMOOTH",
"562 740 LINE",
"460 740 LINE",
"306 143 LINE SMOOTH",
"300 121 OFFCURVE",
"296 112 OFFCURVE",
"293 89 CURVE",
"289 89 LINE",
"287 112 OFFCURVE",
"282 121 OFFCURVE",
"276 143 CURVE SMOOTH",
"115 740 LINE",
"21 740 LINE"
);
}
);
width = 1090;
}
);
leftKerningGroup = V;
rightKerningGroup = V;
unicode = 0057;
},
{
color = 3;
glyphname = Z;
lastChange = "2018-11-01 20:18:45 +0000";
layers = (
{
layerId = "7ABB4463-F536-4E35-BA78-CBE550C7BEBE";
paths = (
{
closed = 1;
nodes = (
"661 0 LINE",
"661 86 LINE",
"201 86 LINE SMOOTH",
"184 86 OFFCURVE",
"164 85 OFFCURVE",
"151 81 CURVE",
"149 85 LINE",
"161 93 OFFCURVE",
"173 104 OFFCURVE",
"181 114 CURVE SMOOTH",
"640 707 LINE",
"640 800 LINE",
"61 800 LINE",
"61 712 LINE",
"476 712 LINE SMOOTH",
"493 712 OFFCURVE",
"513 713 OFFCURVE",
"526 717 CURVE",
"528 713 LINE",
"516 705 OFFCURVE",
"504 694 OFFCURVE",
"496 684 CURVE SMOOTH",
"40 92 LINE",
"40 0 LINE"
);
}
);
width = 696;
},
{
layerId = "3F9681A4-5725-441D-B9D2-8C7C614AC445";
paths = (
{
closed = 1;
nodes = (
"619 0 LINE",
"619 80 LINE",
"193 80 LINE SMOOTH",
"177 80 OFFCURVE",
"159 79 OFFCURVE",
"147 75 CURVE",
"145 79 LINE",
"156 86 OFFCURVE",
"167 96 OFFCURVE",
"175 105 CURVE SMOOTH",
"599 654 LINE",
"599 740 LINE",
"64 740 LINE",
"64 659 LINE",
"447 659 LINE SMOOTH",
"463 659 OFFCURVE",
"482 660 OFFCURVE",
"494 663 CURVE",
"496 660 LINE",
"484 652 OFFCURVE",
"473 642 OFFCURVE",
"466 633 CURVE SMOOTH",
"44 85 LINE",
"44 0 LINE"
);
}
);
width = 696;
}
);
leftKerningGroup = Z;
rightKerningGroup = Z;
unicode = 005A;
},
{
color = 4;
glyphname = a;
lastChange = "2018-11-01 22:16:03 +0000";
layers = (
{
background = {
paths = (
{
closed = 1;
nodes = (
"55 311 OFFCURVE",
"185 372 OFFCURVE",
"348 378 CURVE SMOOTH",
"469 383 LINE",
"450 361 LINE",
"450 402 LINE SMOOTH",
"450 496 OFFCURVE",
"394 549 OFFCURVE",
"307 549 CURVE SMOOTH",
"224 549 OFFCURVE",
"160 499 OFFCURVE",
"160 401 CURVE",
"66 401 LINE",
"66 540 OFFCURVE",
"178 625 OFFCURVE",
"311 625 CURVE SMOOTH",
"471 625 OFFCURVE",
"544 535 OFFCURVE",
"544 390 CURVE SMOOTH",
"544 183 LINE SMOOTH",
"544 115 OFFCURVE",
"549 63 OFFCURVE",
"558 0 CURVE",
"464 0 LINE",
"458 34 OFFCURVE",
"454 75 OFFCURVE",
"452 117 CURVE",
"469 118 LINE",
"430 31 OFFCURVE",
"348 -15 OFFCURVE",
"257 -15 CURVE SMOOTH",
"138 -15 OFFCURVE",
"55 64 OFFCURVE",
"55 159 CURVE SMOOTH"
);
},
{
closed = 1;
nodes = (
"149 101 OFFCURVE",
"209 62 OFFCURVE",
"277 62 CURVE SMOOTH",
"371 62 OFFCURVE",
"450 143 OFFCURVE",
"450 284 CURVE SMOOTH",
"450 336 LINE",
"475 307 LINE",
"366 301 LINE SMOOTH",
"208 293 OFFCURVE",
"149 242 OFFCURVE",
"149 167 CURVE SMOOTH"
);
}
);
};
layerId = "7ABB4463-F536-4E35-BA78-CBE550C7BEBE";
paths = (
{
closed = 1;
nodes = (
"147 104 OFFCURVE",
"206 62 OFFCURVE",
"277 62 CURVE SMOOTH",
"371 62 OFFCURVE",
"450 125 OFFCURVE",
"450 234 CURVE SMOOTH",
"450 336 LINE",
"475 314 LINE",
"366 308 LINE SMOOTH",
"205 299 OFFCURVE",
"147 248 OFFCURVE",
"147 175 CURVE SMOOTH"
);
},
{
closed = 1;
nodes = (
"450 89 LINE",
"407 23 OFFCURVE",
"336 -15 OFFCURVE",
"257 -15 CURVE SMOOTH",
"138 -15 OFFCURVE",
"55 64 OFFCURVE",
"55 159 CURVE SMOOTH",
"55 311 OFFCURVE",
"185 372 OFFCURVE",
"348 378 CURVE SMOOTH",
"469 383 LINE",
"450 361 LINE",
"450 402 LINE SMOOTH",
"450 496 OFFCURVE",
"394 549 OFFCURVE",
"307 549 CURVE SMOOTH",
"224 549 OFFCURVE",
"160 499 OFFCURVE",
"160 401 CURVE",
"74 401 LINE",
"74 540 OFFCURVE",
"182 625 OFFCURVE",
"311 625 CURVE SMOOTH",
"464 625 OFFCURVE",
"544 530 OFFCURVE",
"544 390 CURVE SMOOTH",
"544 183 LINE SMOOTH",
"544 115 OFFCURVE",
"549 63 OFFCURVE",
"558 0 CURVE",
"464 0 LINE",
"459 26 OFFCURVE",
"456 57 OFFCURVE",
"454 89 CURVE"
);
}
);
width = 608;
},
{
background = {
paths = (
{
closed = 1;
nodes = (
"130 98 OFFCURVE",
"186 58 OFFCURVE",
"253 58 CURVE SMOOTH",
"343 58 OFFCURVE",
"418 118 OFFCURVE",
"418 222 CURVE SMOOTH",
"418 319 LINE",
"442 298 LINE",
"338 293 LINE SMOOTH",
"185 284 OFFCURVE",
"130 236 OFFCURVE",
"130 166 CURVE SMOOTH"
);
},
{
closed = 1;
nodes = (
"418 84 LINE",
"377 21 OFFCURVE",
"310 -15 OFFCURVE",
"234 -15 CURVE SMOOTH",
"121 -15 OFFCURVE",
"42 60 OFFCURVE",
"42 151 CURVE SMOOTH",
"42 296 OFFCURVE",
"166 354 OFFCURVE",
"321 359 CURVE SMOOTH",
"436 364 LINE",
"418 343 LINE",
"418 382 LINE SMOOTH",
"418 472 OFFCURVE",
"365 522 OFFCURVE",
"282 522 CURVE SMOOTH",
"203 522 OFFCURVE",
"142 475 OFFCURVE",
"142 381 CURVE",
"60 381 LINE",
"60 514 OFFCURVE",
"163 595 OFFCURVE",
"286 595 CURVE SMOOTH",
"432 595 OFFCURVE",
"508 504 OFFCURVE",
"508 371 CURVE SMOOTH",
"508 174 LINE SMOOTH",
"508 109 OFFCURVE",
"513 59 OFFCURVE",
"521 -1 CURVE",
"432 -1 LINE",
"427 24 OFFCURVE",
"424 54 OFFCURVE",
"422 84 CURVE"
);
}
);
};
layerId = "3F9681A4-5725-441D-B9D2-8C7C614AC445";
paths = (
{
closed = 1;
nodes = (
"140 97 OFFCURVE",
"187 63 OFFCURVE",
"253 63 CURVE SMOOTH",
"343 63 OFFCURVE",
"418 128 OFFCURVE",
"418 238 CURVE SMOOTH",
"418 310 LINE",
"442 280 LINE",
"338 275 LINE SMOOTH",
"190 268 OFFCURVE",
"140 226 OFFCURVE",
"140 161 CURVE SMOOTH"
);
},
{
closed = 1;
nodes = (
"416 84 LINE",
"379 21 OFFCURVE",
"309 -15 OFFCURVE",
"234 -15 CURVE SMOOTH",
"121 -15 OFFCURVE",
"45 55 OFFCURVE",
"45 156 CURVE SMOOTH",
"45 284 OFFCURVE",
"146 342 OFFCURVE",
"321 350 CURVE SMOOTH",
"436 355 LINE",
"418 334 LINE",
"418 382 LINE SMOOTH",
"418 472 OFFCURVE",
"380 519 OFFCURVE",
"290 519 CURVE SMOOTH",
"211 519 OFFCURVE",
"154 483 OFFCURVE",
"154 404 CURVE",
"60 404 LINE",
"60 522 OFFCURVE",
"160 595 OFFCURVE",
"293 595 CURVE SMOOTH",
"449 595 OFFCURVE",
"514 504 OFFCURVE",
"514 371 CURVE SMOOTH",
"514 -1 LINE",
"420 -1 LINE",
"420 84 LINE"
);
}
);
width = 574;
}
);
leftKerningGroup = a;
rightKerningGroup = a;
unicode = 0061;
},
{
color = 4;
glyphname = b;
lastChange = "2018-11-05 17:41:47 +0000";
layers = (
{
background = {
paths = (
{
closed = 1;
nodes = (
"75 0 LINE",
"170 0 LINE",
"170 120 LINE",
"154 96 LINE",
"197 23 OFFCURVE",
"264 -15 OFFCURVE",
"356 -15 CURVE SMOOTH",
"534 -15 OFFCURVE",
"629 125 OFFCURVE",
"629 307 CURVE SMOOTH",
"629 487 OFFCURVE",
"534 625 OFFCURVE",
"373 625 CURVE SMOOTH",
"275 625 OFFCURVE",
"195 575 OFFCURVE",
"149 487 CURVE",
"170 499 LINE",
"170 800 LINE",
"75 800 LINE"
);
},
{
closed = 1;
nodes = (
"164 456 OFFCURVE",
"239 550 OFFCURVE",
"346 550 CURVE SMOOTH",
"450 550 OFFCURVE",
"529 456 OFFCURVE",
"529 307 CURVE SMOOTH",
"529 155 OFFCURVE",
"450 60 OFFCURVE",
"346 60 CURVE SMOOTH",
"239 60 OFFCURVE",
"164 156 OFFCURVE",
"164 307 CURVE SMOOTH"
);
}
);
};
layerId = "7ABB4463-F536-4E35-BA78-CBE550C7BEBE";
paths = (
{
closed = 1;
nodes = (
"174 94 LINE",
"211 24 OFFCURVE",
"290 -15 OFFCURVE",
"366 -15 CURVE SMOOTH",
"534 -15 OFFCURVE",
"629 125 OFFCURVE",
"629 307 CURVE SMOOTH",
"629 487 OFFCURVE",
"534 625 OFFCURVE",
"371 625 CURVE SMOOTH",
"289 625 OFFCURVE",
"221 585 OFFCURVE",
"174 513 CURVE",
"170 513 LINE",
"170 800 LINE",
"75 800 LINE",
"75 0 LINE",
"170 0 LINE",
"170 94 LINE"
);
},
{
closed = 1;
nodes = (
"163 455 OFFCURVE",
"238 549 OFFCURVE",
"346 549 CURVE SMOOTH",
"450 549 OFFCURVE",
"531 455 OFFCURVE",
"531 306 CURVE SMOOTH",
"531 151 OFFCURVE",
"453 59 OFFCURVE",
"346 59 CURVE SMOOTH",
"238 59 OFFCURVE",
"163 155 OFFCURVE",
"163 306 CURVE SMOOTH"
);
}
);
width = 669;
},
{
background = {
paths = (
{
closed = 1;
nodes = (
"199 89 LINE",
"235 22 OFFCURVE",
"310 -15 OFFCURVE",
"382 -15 CURVE SMOOTH",
"542 -15 OFFCURVE",
"633 118 OFFCURVE",
"633 292 CURVE SMOOTH",
"633 463 OFFCURVE",
"542 595 OFFCURVE",
"387 595 CURVE SMOOTH",
"309 595 OFFCURVE",
"244 557 OFFCURVE",
"199 488 CURVE",
"196 488 LINE",
"196 800 LINE",
"105 800 LINE",
"105 -1 LINE",
"196 -1 LINE",
"196 89 LINE"
);
},
{
closed = 1;
nodes = (
"189 433 OFFCURVE",
"260 523 OFFCURVE",
"363 523 CURVE SMOOTH",
"462 523 OFFCURVE",
"540 433 OFFCURVE",
"540 291 CURVE SMOOTH",
"540 143 OFFCURVE",
"465 56 OFFCURVE",
"363 56 CURVE SMOOTH",
"260 56 OFFCURVE",
"189 147 OFFCURVE",
"189 291 CURVE SMOOTH"
);
}
);
};
layerId = "3F9681A4-5725-441D-B9D2-8C7C614AC445";
paths = (
{
closed = 1;
nodes = (
"171 0 LINE",
"171 70 LINE",
"175 70 LINE",
"219 17 OFFCURVE",
"282 -14 OFFCURVE",
"361 -14 CURVE SMOOTH",
"511 -14 OFFCURVE",
"623 114 OFFCURVE",
"623 292 CURVE SMOOTH",
"623 468 OFFCURVE",
"510 595 OFFCURVE",
"361 595 CURVE SMOOTH",
"282 595 OFFCURVE",
"220 564 OFFCURVE",
"175 512 CURVE",
"171 512 LINE",
"171 800 LINE",
"75 800 LINE",
"75 0 LINE"
);
},
{
closed = 1;
nodes = (
"160 421 OFFCURVE",
"230 515 OFFCURVE",
"341 515 CURVE SMOOTH",
"452 515 OFFCURVE",
"523 422 OFFCURVE",
"523 292 CURVE SMOOTH",
"523 160 OFFCURVE",
"452 66 OFFCURVE",
"341 66 CURVE SMOOTH",
"230 66 OFFCURVE",
"160 161 OFFCURVE",
"160 292 CURVE SMOOTH"
);
}
);
width = 653;
}
);
leftKerningGroup = l;
leftMetricsKey = l;
rightKerningGroup = o;
rightMetricsKey = "=o";
unicode = 0062;
},
{
color = 4;
glyphname = c;
lastChange = "2018-11-05 18:14:44 +0000";
layers = (
{
background = {
paths = (
{
closed = 1;
nodes = (
"580 385 LINE",
"568 530 OFFCURVE",
"467 625 OFFCURVE",
"326 625 CURVE SMOOTH",
"145 625 OFFCURVE",
"40 497 OFFCURVE",
"40 307 CURVE SMOOTH",
"40 115 OFFCURVE",
"147 -15 OFFCURVE",
"323 -15 CURVE SMOOTH",
"469 -15 OFFCURVE",
"569 73 OFFCURVE",
"580 207 CURVE",
"484 207 LINE",
"473 126 OFFCURVE",
"417 61 OFFCURVE",
"322 61 CURVE SMOOTH",
"202 61 OFFCURVE",
"138 164 OFFCURVE",
"138 309 CURVE SMOOTH",
"138 464 OFFCURVE",
"203 550 OFFCURVE",
"326 550 CURVE SMOOTH",
"402 550 OFFCURVE",
"474 498 OFFCURVE",
"484 385 CURVE"
);
}
);
};
layerId = "7ABB4463-F536-4E35-BA78-CBE550C7BEBE";
paths = (
{
closed = 1;
nodes = (
"580 375 LINE",
"571 526 OFFCURVE",
"467 625 OFFCURVE",
"326 625 CURVE SMOOTH",
"145 625 OFFCURVE",
"40 497 OFFCURVE",
"40 307 CURVE SMOOTH",
"40 115 OFFCURVE",
"147 -15 OFFCURVE",
"323 -15 CURVE SMOOTH",
"469 -15 OFFCURVE",
"572 77 OFFCURVE",
"580 217 CURVE",
"494 217 LINE",
"485 130 OFFCURVE",
"423 61 OFFCURVE",
"322 61 CURVE SMOOTH",
"202 61 OFFCURVE",
"138 164 OFFCURVE",
"138 309 CURVE SMOOTH",
"138 464 OFFCURVE",
"203 550 OFFCURVE",
"326 550 CURVE SMOOTH",
"407 550 OFFCURVE",
"486 495 OFFCURVE",
"494 375 CURVE"
);
}
);
width = 600;
},
{
background = {
paths = (
{
closed = 1;
nodes = (
"556 357 LINE",
"547 500 OFFCURVE",
"448 595 OFFCURVE",
"314 595 CURVE SMOOTH",
"142 595 OFFCURVE",
"42 473 OFFCURVE",
"42 292 CURVE SMOOTH",
"42 109 OFFCURVE",
"144 -15 OFFCURVE",
"311 -15 CURVE SMOOTH",
"450 -15 OFFCURVE",
"548 73 OFFCURVE",
"556 206 CURVE",
"474 206 LINE",
"466 123 OFFCURVE",
"407 57 OFFCURVE",
"310 57 CURVE SMOOTH",
"196 57 OFFCURVE",
"135 156 OFFCURVE",
"135 294 CURVE SMOOTH",
"135 441 OFFCURVE",
"197 523 OFFCURVE",
"314 523 CURVE SMOOTH",
"391 523 OFFCURVE",
"467 471 OFFCURVE",
"474 357 CURVE"
);
}
);
};
layerId = "3F9681A4-5725-441D-B9D2-8C7C614AC445";
paths = (
{
closed = 1;
nodes = (
"466 168 LINE",
"452 105 OFFCURVE",
"388 66 OFFCURVE",
"316 66 CURVE SMOOTH",
"206 66 OFFCURVE",
"130 161 OFFCURVE",
"130 292 CURVE SMOOTH",
"130 421 OFFCURVE",
"206 515 OFFCURVE",
"316 515 CURVE SMOOTH",
"391 515 OFFCURVE",
"457 473 OFFCURVE",
"470 407 CURVE",
"564 407 LINE",
"549 521 OFFCURVE",
"440 595 OFFCURVE",
"321 595 CURVE SMOOTH",
"147 595 OFFCURVE",
"30 467 OFFCURVE",
"30 292 CURVE SMOOTH",
"30 115 OFFCURVE",
"147 -14 OFFCURVE",
"321 -14 CURVE SMOOTH",
"438 -14 OFFCURVE",
"545 57 OFFCURVE",
"562 168 CURVE"
);
}
);
width = 584;
}
);
leftKerningGroup = o;
leftMetricsKey = "=o";
rightKerningGroup = c;
unicode = 0063;
},
{
color = 4;
glyphname = d;
lastChange = "2018-11-05 17:42:27 +0000";
layers = (
{
background = {
paths = (
{
closed = 1;
nodes = (
"501 63 OFFCURVE",
"506 31 OFFCURVE",
"514 0 CURVE",
"609 0 LINE",
"598 61 OFFCURVE",
"594 117 OFFCURVE",
"594 183 CURVE SMOOTH",
"594 800 LINE",
"499 800 LINE",
"499 513 LINE",
"495 513 LINE",
"448 585 OFFCURVE",
"380 625 OFFCURVE",
"298 625 CURVE SMOOTH",
"135 625 OFFCURVE",
"40 487 OFFCURVE",
"40 307 CURVE SMOOTH",
"40 125 OFFCURVE",
"135 -15 OFFCURVE",
"303 -15 CURVE SMOOTH",
"379 -15 OFFCURVE",
"458 24 OFFCURVE",
"495 94 CURVE",
"499 94 LINE"
);
},
{
closed = 1;
nodes = (
"506 155 OFFCURVE",
"431 59 OFFCURVE",
"323 59 CURVE SMOOTH",
"216 59 OFFCURVE",
"138 151 OFFCURVE",
"138 306 CURVE SMOOTH",
"138 455 OFFCURVE",
"219 549 OFFCURVE",
"323 549 CURVE SMOOTH",
"431 549 OFFCURVE",
"506 455 OFFCURVE",
"506 306 CURVE SMOOTH"
);
}
);
};
layerId = "7ABB4463-F536-4E35-BA78-CBE550C7BEBE";
paths = (
{
closed = 1;
nodes = (
"503 61 OFFCURVE",
"507 33 OFFCURVE",
"514 0 CURVE",
"609 0 LINE",
"598 61 OFFCURVE",
"594 117 OFFCURVE",
"594 183 CURVE SMOOTH",
"594 800 LINE",
"499 800 LINE",
"499 513 LINE",
"495 513 LINE",
"448 585 OFFCURVE",
"380 625 OFFCURVE",
"298 625 CURVE SMOOTH",
"135 625 OFFCURVE",
"40 487 OFFCURVE",
"40 307 CURVE SMOOTH",
"40 125 OFFCURVE",
"135 -15 OFFCURVE",
"303 -15 CURVE SMOOTH",
"380 -15 OFFCURVE",
"460 26 OFFCURVE",
"498 99 CURVE",
"502 99 LINE"
);
},
{
closed = 1;
nodes = (
"506 155 OFFCURVE",
"431 59 OFFCURVE",
"323 59 CURVE SMOOTH",
"216 59 OFFCURVE",
"138 151 OFFCURVE",
"138 306 CURVE SMOOTH",
"138 455 OFFCURVE",
"219 549 OFFCURVE",
"323 549 CURVE SMOOTH",
"431 549 OFFCURVE",
"506 455 OFFCURVE",
"506 306 CURVE SMOOTH"
);
}
);
width = 659;
},
{
background = {
paths = (
{
closed = 1;
nodes = (
"437 -1 LINE",
"525 -1 LINE",
"525 800 LINE",
"434 800 LINE",
"434 488 LINE",
"430 488 LINE",
"386 557 OFFCURVE",
"321 595 OFFCURVE",
"243 595 CURVE SMOOTH",
"87 595 OFFCURVE",
"-3 464 OFFCURVE",
"-3 292 CURVE SMOOTH",
"-3 118 OFFCURVE",
"87 -15 OFFCURVE",
"247 -15 CURVE SMOOTH",
"321 -15 OFFCURVE",
"397 24 OFFCURVE",
"433 94 CURVE",
"437 94 LINE"
);
},
{
closed = 1;
nodes = (
"441 147 OFFCURVE",
"369 56 OFFCURVE",
"266 56 CURVE SMOOTH",
"164 56 OFFCURVE",
"90 143 OFFCURVE",
"90 291 CURVE SMOOTH",
"90 433 OFFCURVE",
"167 523 OFFCURVE",
"266 523 CURVE SMOOTH",
"369 523 OFFCURVE",
"441 433 OFFCURVE",
"441 291 CURVE SMOOTH"
);
}
);
};
layerId = "3F9681A4-5725-441D-B9D2-8C7C614AC445";
paths = (
{
closed = 1;
nodes = (
"578 800 LINE",
"482 800 LINE",
"482 512 LINE",
"478 512 LINE",
"433 564 OFFCURVE",
"371 595 OFFCURVE",
"292 595 CURVE SMOOTH",
"143 595 OFFCURVE",
"30 468 OFFCURVE",
"30 292 CURVE SMOOTH",
"30 114 OFFCURVE",
"142 -14 OFFCURVE",
"292 -14 CURVE SMOOTH",
"371 -14 OFFCURVE",
"434 17 OFFCURVE",
"478 70 CURVE",
"482 70 LINE",
"482 0 LINE",
"578 0 LINE"
);
},
{
closed = 1;
nodes = (
"493 161 OFFCURVE",
"423 66 OFFCURVE",
"312 66 CURVE SMOOTH",
"201 66 OFFCURVE",
"130 160 OFFCURVE",
"130 292 CURVE SMOOTH",
"130 422 OFFCURVE",
"201 515 OFFCURVE",
"312 515 CURVE SMOOTH",
"423 515 OFFCURVE",
"493 421 OFFCURVE",
"493 292 CURVE SMOOTH"
);
}
);
width = 653;
}
);
leftKerningGroup = o;
leftMetricsKey = "=o";
rightKerningGroup = l;
rightMetricsKey = "=l";
unicode = 0064;
},
{
color = 4;
glyphname = e;
lastChange = "2018-11-05 20:27:33 +0000";
layers = (
{
background = {
paths = (
{
closed = 1;
nodes = (
"576 287 LINE",
"600 486 OFFCURVE",
"496 625 OFFCURVE",
"326 625 CURVE SMOOTH",
"145 625 OFFCURVE",
"40 497 OFFCURVE",
"40 307 CURVE SMOOTH",
"40 115 OFFCURVE",
"147 -15 OFFCURVE",
"323 -15 CURVE SMOOTH",
"469 -15 OFFCURVE",
"569 76 OFFCURVE",
"580 197 CURVE",
"484 197 LINE",
"473 123 OFFCURVE",
"417 61 OFFCURVE",
"322 61 CURVE SMOOTH",
"202 61 OFFCURVE",
"138 164 OFFCURVE",
"138 309 CURVE SMOOTH",
"138 464 OFFCURVE",
"203 550 OFFCURVE",
"326 550 CURVE SMOOTH",
"418 550 OFFCURVE",
"496 476 OFFCURVE",
"482 313 CURVE",
"524 369 LINE",
"120 369 LINE",
"117 287 LINE"
);
}
);
};
layerId = "7ABB4463-F536-4E35-BA78-CBE550C7BEBE";
paths = (
{
closed = 1;
nodes = (
"576 287 LINE",
"600 490 OFFCURVE",
"501 625 OFFCURVE",
"326 625 CURVE SMOOTH",
"145 625 OFFCURVE",
"40 497 OFFCURVE",
"40 307 CURVE SMOOTH",
"40 110 OFFCURVE",
"142 -15 OFFCURVE",
"323 -15 CURVE SMOOTH",
"469 -15 OFFCURVE",
"569 76 OFFCURVE",
"580 197 CURVE",
"494 197 LINE",
"483 123 OFFCURVE",
"421 61 OFFCURVE",
"326 61 CURVE SMOOTH",
"203 61 OFFCURVE",
"138 161 OFFCURVE",
"138 309 CURVE SMOOTH",
"138 464 OFFCURVE",
"203 550 OFFCURVE",
"326 550 CURVE SMOOTH",
"418 550 OFFCURVE",
"496 476 OFFCURVE",
"482 313 CURVE",
"524 369 LINE",
"120 369 LINE",
"117 287 LINE"
);
}
);
width = 615;
},
{
background = {
paths = (
{
closed = 1;
nodes = (
"570 287 LINE",
"594 486 OFFCURVE",
"490 625 OFFCURVE",
"320 625 CURVE SMOOTH",
"139 625 OFFCURVE",
"34 497 OFFCURVE",
"34 307 CURVE SMOOTH",
"34 115 OFFCURVE",
"141 -15 OFFCURVE",
"317 -15 CURVE SMOOTH",
"463 -15 OFFCURVE",
"563 76 OFFCURVE",
"574 197 CURVE",
"478 197 LINE",
"467 123 OFFCURVE",
"411 61 OFFCURVE",
"316 61 CURVE SMOOTH",
"196 61 OFFCURVE",
"132 164 OFFCURVE",
"132 309 CURVE SMOOTH",
"132 464 OFFCURVE",
"197 550 OFFCURVE",
"320 550 CURVE SMOOTH",
"412 550 OFFCURVE",
"490 476 OFFCURVE",
"476 313 CURVE",
"518 369 LINE",
"114 369 LINE",
"111 287 LINE"
);
}
);
};
layerId = "3F9681A4-5725-441D-B9D2-8C7C614AC445";
paths = (
{
closed = 1;
nodes = (
"128 328 LINE",
"130 442 OFFCURVE",
"210 515 OFFCURVE",
"305 515 CURVE SMOOTH",
"403 515 OFFCURVE",
"470 427 OFFCURVE",
"468 311 CURVE",
"511 346 LINE",
"113 346 LINE",
"110 269 LINE",
"567 269 LINE",
"567 295 LINE SMOOTH",
"567 459 OFFCURVE",
"469 595 OFFCURVE",
"305 595 CURVE SMOOTH",
"146 595 OFFCURVE",
"30 475 OFFCURVE",
"30 289 CURVE SMOOTH",
"30 101 OFFCURVE",
"148 -15 OFFCURVE",
"315 -15 CURVE SMOOTH",
"440 -15 OFFCURVE",
"534 61 OFFCURVE",
"560 168 CURVE",
"462 168 LINE",
"442 103 OFFCURVE",
"391 65 OFFCURVE",
"315 65 CURVE SMOOTH",
"207 65 OFFCURVE",
"124 147 OFFCURVE",
"126 293 CURVE"
);
}
);
width = 592;
}
);
leftKerningGroup = o;
leftMetricsKey = "=c";
rightKerningGroup = e;
unicode = 0065;
},
{
color = 4;
glyphname = f;
lastChange = "2018-11-01 23:01:48 +0000";
layers = (
{
background = {
paths = (
{
closed = 1;
nodes = (
"20 529 LINE",
"147 529 LINE",
"122 554 LINE",
"122 0 LINE",
"217 0 LINE",
"217 554 LINE",
"192 529 LINE",
"358 529 LINE",
"358 611 LINE",
"192 611 LINE",
"217 586 LINE",
"217 631 LINE SMOOTH",
"217 698 OFFCURVE",
"233 717 OFFCURVE",
"297 717 CURVE SMOOTH",
"411 717 LINE",
"411 800 LINE",
"281 800 LINE SMOOTH",
"179 800 OFFCURVE",
"122 739 OFFCURVE",
"122 631 CURVE SMOOTH",
"122 586 LINE",
"147 611 LINE",
"20 611 LINE"
);
}
);
};
layerId = "7ABB4463-F536-4E35-BA78-CBE550C7BEBE";
paths = (
{
closed = 1;
nodes = (
"147 528 LINE",
"123 553 LINE",
"123 0 LINE",
"217 0 LINE",
"217 553 LINE",
"192 528 LINE",
"358 528 LINE",
"358 610 LINE",
"192 610 LINE",
"217 585 LINE",
"217 635 LINE SMOOTH",
"217 700 OFFCURVE",
"233 718 OFFCURVE",
"297 718 CURVE SMOOTH",
"391 718 LINE",
"391 800 LINE",
"281 800 LINE SMOOTH",
"179 800 OFFCURVE",
"123 739 OFFCURVE",
"123 631 CURVE SMOOTH",
"123 585 LINE",
"147 610 LINE",
"20 610 LINE",
"20 528 LINE"
);
}
);
width = 396;
},
{
background = {
paths = (
{
closed = 1;
nodes = (
"141 502 LINE",
"118 525 LINE",
"118 0 LINE",
"207 0 LINE",
"207 525 LINE",
"184 502 LINE",
"341 502 LINE",
"341 580 LINE",
"184 580 LINE",
"207 556 LINE",
"207 643 LINE SMOOTH",
"207 705 OFFCURVE",
"223 722 OFFCURVE",
"283 722 CURVE SMOOTH",
"373 722 LINE",
"373 800 LINE",
"268 800 LINE SMOOTH",
"171 800 OFFCURVE",
"118 742 OFFCURVE",
"118 640 CURVE SMOOTH",
"118 556 LINE",
"141 580 LINE",
"20 580 LINE",
"20 502 LINE"
);
}
);
};
layerId = "3F9681A4-5725-441D-B9D2-8C7C614AC445";
paths = (
{
closed = 1;
nodes = (
"20 500 LINE",
"139 500 LINE",
"114 525 LINE",
"114 0 LINE",
"210 0 LINE",
"210 525 LINE",
"185 500 LINE",
"341 500 LINE",
"341 580 LINE",
"185 580 LINE",
"210 555 LINE",
"210 659 LINE SMOOTH",
"210 708 OFFCURVE",
"222 720 OFFCURVE",
"270 720 CURVE SMOOTH",
"373 720 LINE",
"373 800 LINE",
"234 800 LINE SMOOTH",
"148 800 OFFCURVE",
"114 764 OFFCURVE",
"114 671 CURVE SMOOTH",
"114 555 LINE",
"139 580 LINE",
"20 580 LINE"
);
}
);
width = 378;
}
);
leftKerningGroup = f;
leftMetricsKey = "=t";
rightKerningGroup = f;
unicode = 0066;
},
{
color = 3;
glyphname = g;
lastChange = "2018-11-01 22:30:17 +0000";
layers = (
{
background = {
paths = (
{
closed = 1;
nodes = (
"398 163 OFFCURVE",
"483 259 OFFCURVE",
"483 396 CURVE SMOOTH",
"483 539 OFFCURVE",
"398 627 OFFCURVE",
"261 627 CURVE SMOOTH",
"127 627 OFFCURVE",
"40 539 OFFCURVE",
"40 396 CURVE SMOOTH",
"40 259 OFFCURVE",
"127 163 OFFCURVE",
"261 163 CURVE SMOOTH"
);
},
{
closed = 1;
nodes = (
"182 234 OFFCURVE",
"133 298 OFFCURVE",
"133 396 CURVE SMOOTH",
"133 499 OFFCURVE",
"182 555 OFFCURVE",
"261 555 CURVE SMOOTH",
"343 555 OFFCURVE",
"390 499 OFFCURVE",
"390 396 CURVE SMOOTH",
"390 298 OFFCURVE",
"343 234 OFFCURVE",
"261 234 CURVE SMOOTH"
);
},
{
closed = 1;
nodes = (
"447 525 OFFCURVE",
"464 534 OFFCURVE",
"510 534 CURVE SMOOTH",
"578 534 LINE",
"578 610 LINE",
"527 610 LINE SMOOTH",
"462 610 OFFCURVE",
"434 576 OFFCURVE",
"402 540 CURVE",
"430 500 LINE"
);
},
{
closed = 1;
nodes = (
"207 0 CURVE SMOOTH",
"404 0 LINE SMOOTH",
"471 0 OFFCURVE",
"509 -22 OFFCURVE",
"509 -61 CURVE SMOOTH",
"509 -99 OFFCURVE",
"471 -121 OFFCURVE",
"404 -121 CURVE SMOOTH",
"208 -121 LINE SMOOTH",
"131 -121 OFFCURVE",
"107 -81 OFFCURVE",
"107 -50 CURVE SMOOTH",
"107 -5 OFFCURVE",
"137 22 OFFCURVE",
"175 43 CURVE",
"114 44 LINE",
"70 22 OFFCURVE",
"27 -22 OFFCURVE",
"27 -82 CURVE SMOOTH",
"27 -142 OFFCURVE",
"78 -200 OFFCURVE",
"226 -200 CURVE SMOOTH",
"404 -200 LINE SMOOTH",
"529 -200 OFFCURVE",
"600 -149 OFFCURVE",
"600 -59 CURVE SMOOTH",
"600 25 OFFCURVE",
"529 75 OFFCURVE",
"404 78 CURVE SMOOTH",
"208 77 LINE SMOOTH",
"149 80 OFFCURVE",
"125 111 OFFCURVE",
"125 145 CURVE SMOOTH",
"125 172 OFFCURVE",
"152 198 OFFCURVE",
"195 198 CURVE",
"160 230 LINE",
"160 227 LINE",
"100 212 OFFCURVE",
"43 181 OFFCURVE",
"44 118 CURVE SMOOTH",
"45 29 OFFCURVE",
"134 0 OFFCURVE"
);
}
);
};
layerId = "7ABB4463-F536-4E35-BA78-CBE550C7BEBE";
paths = (
{
closed = 1;
nodes = (
"198 235 OFFCURVE",
"149 305 OFFCURVE",
"149 396 CURVE SMOOTH",
"149 492 OFFCURVE",
"202 554 OFFCURVE",
"276 554 CURVE SMOOTH",
"354 554 OFFCURVE",
"404 492 OFFCURVE",
"404 396 CURVE SMOOTH",
"404 305 OFFCURVE",
"357 235 OFFCURVE",
"276 235 CURVE SMOOTH"
);
},
{
closed = 1;
nodes = (
"35 -130 OFFCURVE",
"92 -200 OFFCURVE",
"244 -200 CURVE SMOOTH",
"402 -200 LINE SMOOTH",
"529 -200 OFFCURVE",
"600 -149 OFFCURVE",
"600 -59 CURVE SMOOTH",
"600 26 OFFCURVE",
"525 78 OFFCURVE",
"400 77 CURVE SMOOTH",
"228 76 LINE SMOOTH",
"172 76 OFFCURVE",
"141 104 OFFCURVE",
"141 134 CURVE SMOOTH",
"141 152 OFFCURVE",
"150 172 OFFCURVE",
"169 187 CURVE",
"173 187 LINE",
"203 172 OFFCURVE",
"237 163 OFFCURVE",
"276 163 CURVE SMOOTH",
"413 163 OFFCURVE",
"498 269 OFFCURVE",
"498 396 CURVE SMOOTH",
"498 442 OFFCURVE",
"487 484 OFFCURVE",
"468 519 CURVE",
"468 524 LINE",
"593 524 LINE",
"593 610 LINE",
"542 610 LINE SMOOTH",
"491 610 OFFCURVE",
"462 589 OFFCURVE",
"437 563 CURVE",
"433 563 LINE",
"394 603 OFFCURVE",
"339 627 OFFCURVE",
"276 627 CURVE SMOOTH",
"152 627 OFFCURVE",
"55 529 OFFCURVE",
"55 396 CURVE SMOOTH",
"55 329 OFFCURVE",
"79 267 OFFCURVE",
"122 225 CURVE",
"122 221 LINE",
"87 199 OFFCURVE",
"62 166 OFFCURVE",
"62 124 CURVE SMOOTH",
"62 88 OFFCURVE",
"77 59 OFFCURVE",
"105 38 CURVE",
"105 34 LINE",
"68 20 OFFCURVE",
"35 -15 OFFCURVE",
"35 -69 CURVE SMOOTH"
);
},
{
closed = 1;
nodes = (
"114 -14 OFFCURVE",
"148 9 OFFCURVE",
"210 15 CURVE",
"143 13 LINE",
"167 7 OFFCURVE",
"195 -1 OFFCURVE",
"228 -1 CURVE SMOOTH",
"412 -1 LINE SMOOTH",
"480 -1 OFFCURVE",
"515 -23 OFFCURVE",
"515 -63 CURVE SMOOTH",
"515 -102 OFFCURVE",
"480 -122 OFFCURVE",
"412 -122 CURVE SMOOTH",
"237 -122 LINE SMOOTH",
"158 -122 OFFCURVE",
"114 -97 OFFCURVE",
"114 -53 CURVE SMOOTH"
);
}
);
width = 590;
},
{
background = {
paths = (
{
closed = 1;
nodes = (
"398 163 OFFCURVE",
"483 259 OFFCURVE",
"483 396 CURVE SMOOTH",
"483 539 OFFCURVE",
"398 627 OFFCURVE",
"261 627 CURVE SMOOTH",
"127 627 OFFCURVE",
"40 539 OFFCURVE",
"40 396 CURVE SMOOTH",
"40 259 OFFCURVE",
"127 163 OFFCURVE",
"261 163 CURVE SMOOTH"
);
},
{
closed = 1;
nodes = (
"182 234 OFFCURVE",
"133 298 OFFCURVE",
"133 396 CURVE SMOOTH",
"133 499 OFFCURVE",
"182 555 OFFCURVE",
"261 555 CURVE SMOOTH",
"343 555 OFFCURVE",
"390 499 OFFCURVE",
"390 396 CURVE SMOOTH",
"390 298 OFFCURVE",
"343 234 OFFCURVE",
"261 234 CURVE SMOOTH"
);
},
{
closed = 1;
nodes = (
"447 525 OFFCURVE",
"464 534 OFFCURVE",
"510 534 CURVE SMOOTH",
"578 534 LINE",
"578 610 LINE",
"527 610 LINE SMOOTH",
"462 610 OFFCURVE",
"434 576 OFFCURVE",
"402 540 CURVE",
"430 500 LINE"
);
},
{
closed = 1;
nodes = (
"207 0 CURVE SMOOTH",
"404 0 LINE SMOOTH",
"471 0 OFFCURVE",
"509 -22 OFFCURVE",
"509 -61 CURVE SMOOTH",
"509 -99 OFFCURVE",
"471 -121 OFFCURVE",
"404 -121 CURVE SMOOTH",
"208 -121 LINE SMOOTH",
"131 -121 OFFCURVE",
"107 -81 OFFCURVE",
"107 -50 CURVE SMOOTH",
"107 -5 OFFCURVE",
"137 22 OFFCURVE",
"175 43 CURVE",
"114 44 LINE",
"70 22 OFFCURVE",
"27 -22 OFFCURVE",
"27 -82 CURVE SMOOTH",
"27 -142 OFFCURVE",
"78 -200 OFFCURVE",
"226 -200 CURVE SMOOTH",
"404 -200 LINE SMOOTH",
"529 -200 OFFCURVE",
"600 -149 OFFCURVE",
"600 -59 CURVE SMOOTH",
"600 25 OFFCURVE",
"529 75 OFFCURVE",
"404 78 CURVE SMOOTH",
"208 77 LINE SMOOTH",
"149 80 OFFCURVE",
"125 111 OFFCURVE",
"125 145 CURVE SMOOTH",
"125 172 OFFCURVE",
"152 198 OFFCURVE",
"195 198 CURVE",
"160 230 LINE",
"160 227 LINE",
"100 212 OFFCURVE",
"43 181 OFFCURVE",
"44 118 CURVE SMOOTH",
"45 29 OFFCURVE",
"134 0 OFFCURVE"
);
}
);
};
layerId = "3F9681A4-5725-441D-B9D2-8C7C614AC445";
paths = (
{
closed = 1;
nodes = (
"192 218 OFFCURVE",
"145 285 OFFCURVE",
"145 373 CURVE SMOOTH",
"145 465 OFFCURVE",
"196 525 OFFCURVE",
"267 525 CURVE SMOOTH",
"342 525 OFFCURVE",
"390 465 OFFCURVE",
"390 373 CURVE SMOOTH",
"390 285 OFFCURVE",
"345 218 OFFCURVE",
"267 218 CURVE SMOOTH"
);
},
{
closed = 1;
nodes = (
"36 -133 OFFCURVE",
"90 -200 OFFCURVE",
"236 -200 CURVE SMOOTH",
"388 -200 LINE SMOOTH",
"510 -200 OFFCURVE",
"579 -151 OFFCURVE",
"579 -64 CURVE SMOOTH",
"579 17 OFFCURVE",
"506 67 OFFCURVE",
"386 66 CURVE SMOOTH",
"221 65 LINE SMOOTH",
"167 65 OFFCURVE",
"137 92 OFFCURVE",
"137 121 CURVE SMOOTH",
"137 138 OFFCURVE",
"146 158 OFFCURVE",
"164 172 CURVE",
"168 172 LINE",
"197 158 OFFCURVE",
"230 149 OFFCURVE",
"267 149 CURVE SMOOTH",
"399 149 OFFCURVE",
"481 251 OFFCURVE",
"481 373 CURVE SMOOTH",
"481 416 OFFCURVE",
"470 454 OFFCURVE",
"453 487 CURVE",
"453 492 LINE",
"573 492 LINE",
"572 580 LINE",
"523 580 LINE SMOOTH",
"474 580 OFFCURVE",
"446 558 OFFCURVE",
"422 533 CURVE",
"418 533 LINE",
"381 572 OFFCURVE",
"328 595 OFFCURVE",
"267 595 CURVE SMOOTH",
"148 595 OFFCURVE",
"55 501 OFFCURVE",
"55 373 CURVE SMOOTH",
"55 308 OFFCURVE",
"78 249 OFFCURVE",
"119 208 CURVE",
"119 205 LINE",
"86 183 OFFCURVE",
"61 152 OFFCURVE",
"61 111 CURVE SMOOTH",
"61 77 OFFCURVE",
"76 49 OFFCURVE",
"103 29 CURVE",
"103 25 LINE",
"67 11 OFFCURVE",
"36 -22 OFFCURVE",
"36 -74 CURVE SMOOTH"
);
},
{
closed = 1;
nodes = (
"111 -21 OFFCURVE",
"144 1 OFFCURVE",
"204 7 CURVE",
"139 5 LINE",
"162 -1 OFFCURVE",
"189 -9 OFFCURVE",
"221 -9 CURVE SMOOTH",
"398 -9 LINE SMOOTH",
"463 -9 OFFCURVE",
"497 -30 OFFCURVE",
"497 -68 CURVE SMOOTH",
"497 -106 OFFCURVE",
"463 -125 OFFCURVE",
"398 -125 CURVE SMOOTH",
"230 -125 LINE SMOOTH",
"154 -125 OFFCURVE",
"111 -101 OFFCURVE",
"111 -59 CURVE SMOOTH"
);
}
);
width = 590;
}
);
leftKerningGroup = o;
rightKerningGroup = g;
unicode = 0067;
},
{
color = 4;
glyphname = h;
lastChange = "2018-11-01 22:29:53 +0000";
layers = (
{
layerId = "7ABB4463-F536-4E35-BA78-CBE550C7BEBE";
paths = (
{
closed = 1;
nodes = (
"220 596 OFFCURVE",
"287 625 OFFCURVE",
"356 625 CURVE SMOOTH",
"494 625 OFFCURVE",
"572 527 OFFCURVE",
"572 384 CURVE SMOOTH",
"572 0 LINE",
"478 0 LINE",
"478 366 LINE SMOOTH",
"478 472 OFFCURVE",
"432 545 OFFCURVE",
"332 545 CURVE SMOOTH",
"250 545 OFFCURVE",
"169 489 OFFCURVE",
"169 381 CURVE SMOOTH",
"169 0 LINE",
"75 0 LINE",
"75 800 LINE",
"169 800 LINE",
"169 522 LINE",
"172 522 LINE"
);
}
);
width = 642;
},
{
layerId = "3F9681A4-5725-441D-B9D2-8C7C614AC445";
paths = (
{
closed = 1;
nodes = (
"225 567 OFFCURVE",
"282 595 OFFCURVE",
"357 595 CURVE SMOOTH",
"466 595 OFFCURVE",
"552 507 OFFCURVE",
"552 395 CURVE SMOOTH",
"552 0 LINE",
"456 0 LINE",
"456 357 LINE SMOOTH",
"456 451 OFFCURVE",
"410 509 OFFCURVE",
"325 509 CURVE SMOOTH",
"238 509 OFFCURVE",
"171 441 OFFCURVE",
"171 361 CURVE SMOOTH",
"171 0 LINE",
"75 0 LINE",
"75 800 LINE",
"169 800 LINE",
"169 497 LINE",
"172 497 LINE"
);
}
);
width = 622;
}
);
leftKerningGroup = l;
leftMetricsKey = "=l";
rightKerningGroup = n;
rightMetricsKey = "=n";
unicode = 0068;
},
{
color = 4;
glyphname = i;
lastChange = "2018-11-01 22:09:49 +0000";
layers = (
{
layerId = "7ABB4463-F536-4E35-BA78-CBE550C7BEBE";
paths = (
{
closed = 1;
nodes = (
"73 0 LINE",
"167 0 LINE",
"167 610 LINE",
"73 610 LINE"
);
},
{
closed = 1;
nodes = (
"65 692 LINE",
"175 692 LINE",
"175 800 LINE",
"65 800 LINE"
);
}
);
width = 240;
},
{
layerId = "3F9681A4-5725-441D-B9D2-8C7C614AC445";
paths = (
{
closed = 1;
nodes = (
"72 0 LINE",
"168 0 LINE",
"168 580 LINE",
"72 580 LINE"
);
},
{
closed = 1;
nodes = (
"65 690 LINE",
"175 690 LINE",
"175 800 LINE",
"65 800 LINE"
);
}
);
width = 240;
}
);
leftKerningGroup = i;
rightKerningGroup = i;
unicode = 0069;
},
{
color = 4;
glyphname = idotless;
lastChange = "2018-11-01 18:51:06 +0000";
layers = (
{
layerId = "7ABB4463-F536-4E35-BA78-CBE550C7BEBE";
paths = (
{
closed = 1;
nodes = (
"65 0 LINE",
"159 0 LINE",
"159 610 LINE",
"65 610 LINE"
);
}
);
width = 224;
},
{
layerId = "3F9681A4-5725-441D-B9D2-8C7C614AC445";
paths = (
{
closed = 1;
nodes = (
"65 0 LINE",
"159 0 LINE",
"159 610 LINE",
"65 610 LINE"
);
}
);
width = 224;
}
);
leftKerningGroup = i;
leftMetricsKey = "=i";
rightKerningGroup = i;
rightMetricsKey = "=i";
unicode = 0131;
},
{
color = 4;
glyphname = j;
lastChange = "2018-11-01 23:01:18 +0000";
layers = (
{
background = {
paths = (
{
closed = 1;
nodes = (
"89 -31 LINE SMOOTH",
"89 -96 OFFCURVE",
"73 -114 OFFCURVE",
"9 -114 CURVE SMOOTH",
"-65 -114 LINE",
"-65 -200 LINE",
"25 -200 LINE SMOOTH",
"127 -200 OFFCURVE",
"184 -118 OFFCURVE",
"184 29 CURVE SMOOTH",
"184 610 LINE",
"89 610 LINE"
);
}
);
};
layerId = "7ABB4463-F536-4E35-BA78-CBE550C7BEBE";
paths = (
{
closed = 1;
nodes = (
"25 -200 LINE SMOOTH",
"127 -200 OFFCURVE",
"183 -139 OFFCURVE",
"183 -31 CURVE SMOOTH",
"183 610 LINE",
"89 610 LINE",
"89 -31 LINE SMOOTH",
"89 -96 OFFCURVE",
"73 -114 OFFCURVE",
"9 -114 CURVE SMOOTH",
"-65 -114 LINE",
"-65 -200 LINE"
);
},
{
closed = 1;
nodes = (
"191 692 LINE",
"191 800 LINE",
"81 800 LINE",
"81 692 LINE"
);
}
);
width = 256;
},
{
background = {
paths = (
{
closed = 1;
nodes = (
"79 -31 LINE SMOOTH",
"79 -96 OFFCURVE",
"63 -114 OFFCURVE",
"-1 -114 CURVE SMOOTH",
"-75 -114 LINE",
"-75 -200 LINE",
"15 -200 LINE SMOOTH",
"117 -200 OFFCURVE",
"174 -118 OFFCURVE",
"174 29 CURVE SMOOTH",
"174 610 LINE",
"79 610 LINE"
);
}
);
};
layerId = "3F9681A4-5725-441D-B9D2-8C7C614AC445";
paths = (
{
closed = 1;
nodes = (
"55 -200 LINE SMOOTH",
"141 -200 OFFCURVE",
"175 -164 OFFCURVE",
"175 -71 CURVE SMOOTH",
"175 580 LINE",
"79 580 LINE",
"79 -59 LINE SMOOTH",
"79 -108 OFFCURVE",
"67 -120 OFFCURVE",
"19 -120 CURVE SMOOTH",
"-75 -120 LINE",
"-75 -200 LINE"
);
},
{
closed = 1;
nodes = (
"182 690 LINE",
"182 800 LINE",
"72 800 LINE",
"72 690 LINE"
);
}
);
width = 247;
}
);
leftKerningGroup = j;
rightKerningGroup = j;
rightMetricsKey = i;
unicode = 006A;
},
{
color = 4;
glyphname = k;
lastChange = "2018-11-05 18:00:04 +0000";
layers = (
{
background = {
paths = (
{
closed = 1;
nodes = (
"170 0 LINE",
"170 198 LINE",
"141 118 LINE",
"286 293 LINE",
"290 293 LINE",
"469 0 LINE",
"581 0 LINE",
"352 362 LINE",
"352 366 LINE",
"559 610 LINE",
"446 610 LINE",
"174 281 LINE",
"170 281.2 LINE",
"170 800 LINE",
"75 800 LINE",
"75 0 LINE"
);
}
);
};
layerId = "7ABB4463-F536-4E35-BA78-CBE550C7BEBE";
paths = (
{
closed = 1;
nodes = (
"170 0 LINE",
"170 198 LINE",
"141 118 LINE",
"286 293 LINE",
"290 293 LINE",
"469 0 LINE",
"581 0 LINE",
"352 362 LINE",
"352 366 LINE",
"559 610 LINE",
"446 610 LINE",
"165 270 LINE",
"162 273 LINE",
"169 284 OFFCURVE",
"170 303 OFFCURVE",
"170 321 CURVE SMOOTH",
"170 800 LINE",
"75 800 LINE",
"75 0 LINE"
);
}
);
width = 586;
},
{
background = {
paths = (
{
closed = 1;
nodes = (
"177 0 LINE",
"177 198 LINE",
"148 118 LINE",
"293 293 LINE",
"297 293 LINE",
"476 0 LINE",
"588 0 LINE",
"359 362 LINE",
"359 366 LINE",
"566 610 LINE",
"453 610 LINE",
"181 281 LINE",
"177 281 LINE",
"177 800 LINE",
"82 800 LINE",
"82 0 LINE"
);
}
);
};
layerId = "3F9681A4-5725-441D-B9D2-8C7C614AC445";
paths = (
{
closed = 1;
nodes = (
"171 0 LINE",
"171 188 LINE",
"146 102 LINE",
"284 269 LINE",
"288 269 LINE",
"456 0 LINE",
"562 0 LINE",
"352 338 LINE",
"352 342 LINE",
"553 580 LINE",
"434 580 LINE",
"171 261 LINE",
"171 800 LINE",
"75 800 LINE",
"75 0 LINE"
);
}
);
width = 582;
}
);
leftKerningGroup = l;
leftMetricsKey = "=l";
rightKerningGroup = k;
unicode = 006B;
},
{
color = 4;
glyphname = l;
lastChange = "2018-11-01 22:08:08 +0000";
layers = (
{
layerId = "7ABB4463-F536-4E35-BA78-CBE550C7BEBE";
paths = (
{
closed = 1;
nodes = (
"75 0 LINE",
"169 0 LINE",
"169 800 LINE",
"75 800 LINE"
);
}
);
width = 244;
},
{
layerId = "3F9681A4-5725-441D-B9D2-8C7C614AC445";
paths = (
{
closed = 1;
nodes = (
"75 0 LINE",
"171 0 LINE",
"171 800 LINE",
"75 800 LINE"
);
}
);
width = 246;
}
);
leftKerningGroup = l;
leftMetricsKey = "=n";
rightKerningGroup = l;
unicode = 006C;
},
{
color = 4;
glyphname = m;
lastChange = "2018-11-05 17:19:23 +0000";
layers = (
{
background = {
paths = (
{
closed = 1;
nodes = (
"75 610 LINE",
"169 610 LINE",
"169 522 LINE",
"172 522 LINE",
"217 596 OFFCURVE",
"277 625 OFFCURVE",
"346 625 CURVE SMOOTH",
"440.585 625 OFFCURVE",
"505.39 574.682 OFFCURVE",
"534.528 493.546 CURVE",
"555 522 LINE",
"600 596 OFFCURVE",
"660 625 OFFCURVE",
"729 625 CURVE SMOOTH",
"861 625 OFFCURVE",
"935 527 OFFCURVE",
"935 384 CURVE SMOOTH",
"935 0 LINE",
"841 0 LINE",
"841 366 LINE SMOOTH",
"841 472 OFFCURVE",
"798 545 OFFCURVE",
"705 545 CURVE SMOOTH",
"623 545 OFFCURVE",
"552 489 OFFCURVE",
"552 381 CURVE SMOOTH",
"552 0 LINE",
"458 0 LINE",
"458 366 LINE SMOOTH",
"458 472 OFFCURVE",
"415 545 OFFCURVE",
"322 545 CURVE SMOOTH",
"240 545 OFFCURVE",
"169 489 OFFCURVE",
"169 381 CURVE SMOOTH",
"169 0 LINE",
"75 0 LINE"
);
}
);
};
layerId = "7ABB4463-F536-4E35-BA78-CBE550C7BEBE";
paths = (
{
closed = 1;
nodes = (
"75 610 LINE",
"169 610 LINE",
"169 522 LINE",
"172 522 LINE",
"217 596 OFFCURVE",
"277 625 OFFCURVE",
"346 625 CURVE SMOOTH",
"440.585 625 OFFCURVE",
"505 575 OFFCURVE",
"535 494 CURVE",
"540 494 LINE",
"587 594 OFFCURVE",
"660 625 OFFCURVE",
"729 625 CURVE SMOOTH",
"861 625 OFFCURVE",
"935 527 OFFCURVE",
"935 384 CURVE SMOOTH",
"935 0 LINE",
"841 0 LINE",
"841 366 LINE SMOOTH",
"841 472 OFFCURVE",
"798 545 OFFCURVE",
"705 545 CURVE SMOOTH",
"623 545 OFFCURVE",
"552 489 OFFCURVE",
"552 381 CURVE SMOOTH",
"552 0 LINE",
"458 0 LINE",
"458 366 LINE SMOOTH",
"458 472 OFFCURVE",
"415 545 OFFCURVE",
"322 545 CURVE SMOOTH",
"240 545 OFFCURVE",
"169 489 OFFCURVE",
"169 381 CURVE SMOOTH",
"169 0 LINE",
"75 0 LINE"
);
}
);
width = 1005;
},
{
background = {
paths = (
{
closed = 1;
nodes = (
"75 580 LINE",
"169 580 LINE",
"169 497 LINE",
"172 497 LINE",
"222 567 OFFCURVE",
"272 595 OFFCURVE",
"347 595 CURVE SMOOTH",
"417 595 OFFCURVE",
"477 555 OFFCURVE",
"508 494 CURVE",
"512 480 LINE",
"514.933 480 LINE",
"570 562 OFFCURVE",
"625 595 OFFCURVE",
"708 595 CURVE SMOOTH",
"811 595 OFFCURVE",
"893 507 OFFCURVE",
"893 395 CURVE SMOOTH",
"893 0 LINE",
"797 0 LINE",
"797 357 LINE SMOOTH",
"797 451 OFFCURVE",
"755 509 OFFCURVE",
"676 509 CURVE SMOOTH",
"589 509 OFFCURVE",
"532 441 OFFCURVE",
"532 361 CURVE SMOOTH",
"532 0 LINE",
"436 0 LINE",
"436 357 LINE SMOOTH",
"436 451 OFFCURVE",
"394 509 OFFCURVE",
"315 509 CURVE SMOOTH",
"228 509 OFFCURVE",
"171 441 OFFCURVE",
"171 361 CURVE SMOOTH",
"171 0 LINE",
"75 0 LINE"
);
}
);
};
layerId = "3F9681A4-5725-441D-B9D2-8C7C614AC445";
paths = (
{
closed = 1;
nodes = (
"75 580 LINE",
"169 580 LINE",
"169 497 LINE",
"172 497 LINE",
"222 567 OFFCURVE",
"272 595 OFFCURVE",
"347 595 CURVE SMOOTH",
"428 595 OFFCURVE",
"492 542 OFFCURVE",
"512 480 CURVE",
"514.933 480 LINE",
"570 562 OFFCURVE",
"625 595 OFFCURVE",
"708 595 CURVE SMOOTH",
"811 595 OFFCURVE",
"893 507 OFFCURVE",
"893 395 CURVE SMOOTH",
"893 0 LINE",
"797 0 LINE",
"797 357 LINE SMOOTH",
"797 451 OFFCURVE",
"755 509 OFFCURVE",
"676 509 CURVE SMOOTH",
"589 509 OFFCURVE",
"532 441 OFFCURVE",
"532 361 CURVE SMOOTH",
"532 0 LINE",
"436 0 LINE",
"436 357 LINE SMOOTH",
"436 451 OFFCURVE",
"394 509 OFFCURVE",
"315 509 CURVE SMOOTH",
"228 509 OFFCURVE",
"171 441 OFFCURVE",
"171 361 CURVE SMOOTH",
"171 0 LINE",
"75 0 LINE"
);
}
);
width = 963;
}
);
leftKerningGroup = i;
leftMetricsKey = "=n";
rightKerningGroup = n;
rightMetricsKey = "=n";
unicode = 006D;
},
{
color = 4;
glyphname = n;
lastChange = "2018-11-01 22:06:04 +0000";
layers = (
{
background = {
paths = (
{
closed = 1;
nodes = (
"205 587 OFFCURVE",
"287 625 OFFCURVE",
"369 625 CURVE SMOOTH",
"507 625 OFFCURVE",
"572 527 OFFCURVE",
"572 384 CURVE SMOOTH",
"572 0 LINE",
"478 0 LINE",
"478 366 LINE SMOOTH",
"478 484 OFFCURVE",
"438 541 OFFCURVE",
"342 541 CURVE SMOOTH",
"261 541 OFFCURVE",
"169 482 OFFCURVE",
"169 325 CURVE SMOOTH",
"169 0 LINE",
"75 0 LINE",
"75 610 LINE",
"169 610 LINE",
"169 499 LINE",
"149 487 LINE"
);
}
);
};
layerId = "7ABB4463-F536-4E35-BA78-CBE550C7BEBE";
paths = (
{
closed = 1;
nodes = (
"220 596 OFFCURVE",
"287 625 OFFCURVE",
"356 625 CURVE SMOOTH",
"494 625 OFFCURVE",
"572 527 OFFCURVE",
"572 384 CURVE SMOOTH",
"572 0 LINE",
"478 0 LINE",
"478 366 LINE SMOOTH",
"478 472 OFFCURVE",
"432 545 OFFCURVE",
"332 545 CURVE SMOOTH",
"250 545 OFFCURVE",
"169 489 OFFCURVE",
"169 381 CURVE SMOOTH",
"169 0 LINE",
"75 0 LINE",
"75 610 LINE",
"169 610 LINE",
"169 522 LINE",
"172 522 LINE"
);
}
);
width = 642;
},
{
background = {
paths = (
{
closed = 1;
nodes = (
"212 587 OFFCURVE",
"294 625 OFFCURVE",
"376 625 CURVE SMOOTH",
"514 625 OFFCURVE",
"579 527 OFFCURVE",
"579 384 CURVE SMOOTH",
"579 0 LINE",
"485 0 LINE",
"485 366 LINE SMOOTH",
"485 484 OFFCURVE",
"445 541 OFFCURVE",
"349 541 CURVE SMOOTH",
"268 541 OFFCURVE",
"176 482 OFFCURVE",
"176 325 CURVE SMOOTH",
"176 0 LINE",
"82 0 LINE",
"82 610 LINE",
"176 610 LINE",
"176 499 LINE",
"156 487 LINE"
);
}
);
};
layerId = "3F9681A4-5725-441D-B9D2-8C7C614AC445";
paths = (
{
closed = 1;
nodes = (
"225 567 OFFCURVE",
"282 595 OFFCURVE",
"357 595 CURVE SMOOTH",
"466 595 OFFCURVE",
"552 507 OFFCURVE",
"552 395 CURVE SMOOTH",
"552 0 LINE",
"456 0 LINE",
"456 357 LINE SMOOTH",
"456 451 OFFCURVE",
"410 509 OFFCURVE",
"325 509 CURVE SMOOTH",
"238 509 OFFCURVE",
"171 441 OFFCURVE",
"171 361 CURVE SMOOTH",
"171 0 LINE",
"75 0 LINE",
"75 580 LINE",
"169 580 LINE",
"169 497 LINE",
"172 497 LINE"
);
}
);
width = 622;
}
);
leftKerningGroup = i;
rightKerningGroup = n;
unicode = 006E;
},
{
color = 4;
glyphname = o;
lastChange = "2018-11-01 22:07:43 +0000";
layers = (
{
background = {
paths = (
{
closed = 1;
nodes = (
"496 -15 OFFCURVE",
"605 115 OFFCURVE",
"605 307 CURVE SMOOTH",
"605 497 OFFCURVE",
"496 625 OFFCURVE",
"322 625 CURVE SMOOTH",
"151 625 OFFCURVE",
"40 497 OFFCURVE",
"40 307 CURVE SMOOTH",
"40 115 OFFCURVE",
"151 -15 OFFCURVE",
"322 -15 CURVE SMOOTH"
);
},
{
closed = 1;
nodes = (
"210 60 OFFCURVE",
"140 156 OFFCURVE",
"140 307 CURVE SMOOTH",
"140 456 OFFCURVE",
"210 550 OFFCURVE",
"322 550 CURVE SMOOTH",
"437 550 OFFCURVE",
"505 456 OFFCURVE",
"505 307 CURVE SMOOTH",
"505 155 OFFCURVE",
"437 60 OFFCURVE",
"322 60 CURVE SMOOTH"
);
}
);
};
layerId = "7ABB4463-F536-4E35-BA78-CBE550C7BEBE";
paths = (
{
closed = 1;
nodes = (
"496 -15 OFFCURVE",
"605 115 OFFCURVE",
"605 307 CURVE SMOOTH",
"605 497 OFFCURVE",
"496 625 OFFCURVE",
"322 625 CURVE SMOOTH",
"151 625 OFFCURVE",
"40 497 OFFCURVE",
"40 307 CURVE SMOOTH",
"40 115 OFFCURVE",
"151 -15 OFFCURVE",
"322 -15 CURVE SMOOTH"
);
},
{
closed = 1;
nodes = (
"210 60 OFFCURVE",
"140 156 OFFCURVE",
"140 307 CURVE SMOOTH",
"140 456 OFFCURVE",
"210 550 OFFCURVE",
"322 550 CURVE SMOOTH",
"437 550 OFFCURVE",
"505 456 OFFCURVE",
"505 307 CURVE SMOOTH",
"505 169 OFFCURVE",
"454 60 OFFCURVE",
"322 60 CURVE SMOOTH"
);
}
);
width = 645;
},
{
background = {
paths = (
{
closed = 1;
nodes = (
"487 -15 OFFCURVE",
"611 109 OFFCURVE",
"611 292 CURVE SMOOTH",
"611 473 OFFCURVE",
"487 595 OFFCURVE",
"321 595 CURVE SMOOTH",
"158 595 OFFCURVE",
"32 473 OFFCURVE",
"32 292 CURVE SMOOTH",
"32 109 OFFCURVE",
"158 -15 OFFCURVE",
"321 -15 CURVE SMOOTH"
);
},
{
closed = 1;
nodes = (
"214 66 OFFCURVE",
"134 148 OFFCURVE",
"134 292 CURVE SMOOTH",
"134 434 OFFCURVE",
"214 514 OFFCURVE",
"321 514 CURVE SMOOTH",
"430 514 OFFCURVE",
"508 434 OFFCURVE",
"508 292 CURVE SMOOTH",
"508 160 OFFCURVE",
"447 66 OFFCURVE",
"321 66 CURVE SMOOTH"
);
}
);
};
layerId = "3F9681A4-5725-441D-B9D2-8C7C614AC445";
paths = (
{
closed = 1;
nodes = (
"497 -14 OFFCURVE",
"613 114 OFFCURVE",
"613 292 CURVE SMOOTH",
"613 468 OFFCURVE",
"496 595 OFFCURVE",
"321 595 CURVE SMOOTH",
"147 595 OFFCURVE",
"30 467 OFFCURVE",
"30 292 CURVE SMOOTH",
"30 115 OFFCURVE",
"147 -14 OFFCURVE",
"321 -14 CURVE SMOOTH"
);
},
{
closed = 1;
nodes = (
"206 66 OFFCURVE",
"130 161 OFFCURVE",
"130 292 CURVE SMOOTH",
"130 421 OFFCURVE",
"206 515 OFFCURVE",
"321 515 CURVE SMOOTH",
"438 515 OFFCURVE",
"513 422 OFFCURVE",
"513 292 CURVE SMOOTH",
"513 160 OFFCURVE",
"438 66 OFFCURVE",
"321 66 CURVE SMOOTH"
);
}
);
width = 643;
}
);
leftKerningGroup = o;
rightKerningGroup = o;
unicode = 006F;
},
{
color = 4;
glyphname = p;
lastChange = "2018-11-05 17:43:09 +0000";
layers = (
{
background = {
paths = (
{
closed = 1;
nodes = (
"75 -200 LINE",
"170 -200 LINE",
"170 120 LINE",
"154 96 LINE",
"197 23 OFFCURVE",
"264 -15 OFFCURVE",
"356 -15 CURVE SMOOTH",
"534 -15 OFFCURVE",
"629 125 OFFCURVE",
"629 307 CURVE SMOOTH",
"629 487 OFFCURVE",
"534 625 OFFCURVE",
"373 625 CURVE SMOOTH",
"275 625 OFFCURVE",
"195 575 OFFCURVE",
"149 487 CURVE",
"170 499 LINE",
"170 610 LINE",
"75 610 LINE"
);
},
{
closed = 1;
nodes = (
"164 456 OFFCURVE",
"239 550 OFFCURVE",
"346 550 CURVE SMOOTH",
"450 550 OFFCURVE",
"529 456 OFFCURVE",
"529 307 CURVE SMOOTH",
"529 155 OFFCURVE",
"450 60 OFFCURVE",
"346 60 CURVE SMOOTH",
"239 60 OFFCURVE",
"164 156 OFFCURVE",
"164 307 CURVE SMOOTH"
);
}
);
};
layerId = "7ABB4463-F536-4E35-BA78-CBE550C7BEBE";
paths = (
{
closed = 1;
nodes = (
"174 94 LINE",
"211 24 OFFCURVE",
"290 -15 OFFCURVE",
"366 -15 CURVE SMOOTH",
"534 -15 OFFCURVE",
"629 125 OFFCURVE",
"629 307 CURVE SMOOTH",
"629 487 OFFCURVE",
"534 625 OFFCURVE",
"371 625 CURVE SMOOTH",
"289 625 OFFCURVE",
"221 585 OFFCURVE",
"174 513 CURVE",
"170 513 LINE",
"170 610 LINE",
"75 610 LINE",
"75 -200 LINE",
"170 -200 LINE",
"170 94 LINE"
);
},
{
closed = 1;
nodes = (
"163 455 OFFCURVE",
"238 549 OFFCURVE",
"346 549 CURVE SMOOTH",
"450 549 OFFCURVE",
"531 455 OFFCURVE",
"531 306 CURVE SMOOTH",
"531 151 OFFCURVE",
"453 59 OFFCURVE",
"346 59 CURVE SMOOTH",
"238 59 OFFCURVE",
"163 155 OFFCURVE",
"163 306 CURVE SMOOTH"
);
}
);
width = 669;
},
{
background = {
paths = (
{
closed = 1;
nodes = (
"75 -200 LINE",
"170 -200 LINE",
"170 120 LINE",
"154 96 LINE",
"197 23 OFFCURVE",
"264 -15 OFFCURVE",
"356 -15 CURVE SMOOTH",
"534 -15 OFFCURVE",
"629 125 OFFCURVE",
"629 307 CURVE SMOOTH",
"629 487 OFFCURVE",
"534 625 OFFCURVE",
"373 625 CURVE SMOOTH",
"275 625 OFFCURVE",
"195 575 OFFCURVE",
"149 487 CURVE",
"170 499 LINE",
"170 610 LINE",
"75 610 LINE"
);
},
{
closed = 1;
nodes = (
"164 456 OFFCURVE",
"239 550 OFFCURVE",
"346 550 CURVE SMOOTH",
"450 550 OFFCURVE",
"529 456 OFFCURVE",
"529 307 CURVE SMOOTH",
"529 155 OFFCURVE",
"450 60 OFFCURVE",
"346 60 CURVE SMOOTH",
"239 60 OFFCURVE",
"164 156 OFFCURVE",
"164 307 CURVE SMOOTH"
);
}
);
};
layerId = "3F9681A4-5725-441D-B9D2-8C7C614AC445";
paths = (
{
closed = 1;
nodes = (
"171 -200 LINE",
"171 70 LINE",
"175 70 LINE",
"219 17 OFFCURVE",
"282 -14 OFFCURVE",
"361 -14 CURVE SMOOTH",
"511 -14 OFFCURVE",
"623 114 OFFCURVE",
"623 292 CURVE SMOOTH",
"623 468 OFFCURVE",
"510 595 OFFCURVE",
"361 595 CURVE SMOOTH",
"282 595 OFFCURVE",
"220 564 OFFCURVE",
"175 512 CURVE",
"171 512 LINE",
"171 580 LINE",
"75 580 LINE",
"75 -200 LINE"
);
},
{
closed = 1;
nodes = (
"160 421 OFFCURVE",
"230 515 OFFCURVE",
"341 515 CURVE SMOOTH",
"452 515 OFFCURVE",
"523 422 OFFCURVE",
"523 292 CURVE SMOOTH",
"523 160 OFFCURVE",
"452 66 OFFCURVE",
"341 66 CURVE SMOOTH",
"230 66 OFFCURVE",
"160 161 OFFCURVE",
"160 292 CURVE SMOOTH"
);
}
);
width = 653;
}
);
leftKerningGroup = i;
leftMetricsKey = "=n";
rightKerningGroup = o;
rightMetricsKey = "=o";
unicode = 0070;
},
{
color = 4;
glyphname = q;
lastChange = "2018-11-05 17:49:40 +0000";
layers = (
{
background = {
paths = (
{
closed = 1;
nodes = (
"499 610 LINE",
"499 499 LINE",
"520 487 LINE",
"474 575 OFFCURVE",
"394 625 OFFCURVE",
"296 625 CURVE SMOOTH",
"135 625 OFFCURVE",
"40 487 OFFCURVE",
"40 307 CURVE SMOOTH",
"40 125 OFFCURVE",
"135 -15 OFFCURVE",
"313 -15 CURVE SMOOTH",
"405 -15 OFFCURVE",
"472 23 OFFCURVE",
"515 96 CURVE",
"499 120 LINE",
"499 -200 LINE",
"594 -200 LINE",
"594 610 LINE"
);
},
{
closed = 1;
nodes = (
"505 156 OFFCURVE",
"430 60 OFFCURVE",
"323 60 CURVE SMOOTH",
"219 60 OFFCURVE",
"140 155 OFFCURVE",
"140 307 CURVE SMOOTH",
"140 456 OFFCURVE",
"219 550 OFFCURVE",
"323 550 CURVE SMOOTH",
"430 550 OFFCURVE",
"505 456 OFFCURVE",
"505 307 CURVE SMOOTH"
);
}
);
};
layerId = "7ABB4463-F536-4E35-BA78-CBE550C7BEBE";
paths = (
{
closed = 1;
nodes = (
"499 -200 LINE",
"594 -200 LINE",
"594 610 LINE",
"499 610 LINE",
"499 513 LINE",
"495 513 LINE",
"448 585 OFFCURVE",
"380 625 OFFCURVE",
"298 625 CURVE SMOOTH",
"135 625 OFFCURVE",
"40 487 OFFCURVE",
"40 307 CURVE SMOOTH",
"40 125 OFFCURVE",
"135 -15 OFFCURVE",
"303 -15 CURVE SMOOTH",
"379 -15 OFFCURVE",
"458 24 OFFCURVE",
"495 94 CURVE",
"499 94 LINE"
);
},
{
closed = 1;
nodes = (
"506 155 OFFCURVE",
"431 59 OFFCURVE",
"323 59 CURVE SMOOTH",
"216 59 OFFCURVE",
"138 151 OFFCURVE",
"138 306 CURVE SMOOTH",
"138 455 OFFCURVE",
"219 549 OFFCURVE",
"323 549 CURVE SMOOTH",
"431 549 OFFCURVE",
"506 455 OFFCURVE",
"506 306 CURVE SMOOTH"
);
}
);
width = 669;
},
{
background = {
paths = (
{
closed = 1;
nodes = (
"478 -200 LINE",
"568 -200 LINE",
"568 580 LINE",
"478 580 LINE",
"478 488 LINE",
"474 488 LINE",
"429 556 OFFCURVE",
"364 594 OFFCURVE",
"286 594 CURVE SMOOTH",
"131 594 OFFCURVE",
"41 463 OFFCURVE",
"41 292 CURVE SMOOTH",
"41 118 OFFCURVE",
"131 -15 OFFCURVE",
"291 -15 CURVE SMOOTH",
"364 -15 OFFCURVE",
"439 22 OFFCURVE",
"474 89 CURVE",
"478 89 LINE"
);
},
{
closed = 1;
nodes = (
"484 147 OFFCURVE",
"413 55 OFFCURVE",
"310 55 CURVE SMOOTH",
"208 55 OFFCURVE",
"134 143 OFFCURVE",
"134 291 CURVE SMOOTH",
"134 433 OFFCURVE",
"211 522 OFFCURVE",
"310 522 CURVE SMOOTH",
"413 522 OFFCURVE",
"484 433 OFFCURVE",
"484 291 CURVE SMOOTH"
);
}
);
};
layerId = "3F9681A4-5725-441D-B9D2-8C7C614AC445";
paths = (
{
closed = 1;
nodes = (
"578 580 LINE",
"482 580 LINE",
"482 512 LINE",
"478 512 LINE",
"433 564 OFFCURVE",
"371 595 OFFCURVE",
"292 595 CURVE SMOOTH",
"143 595 OFFCURVE",
"30 468 OFFCURVE",
"30 292 CURVE SMOOTH",
"30 114 OFFCURVE",
"142 -14 OFFCURVE",
"292 -14 CURVE SMOOTH",
"371 -14 OFFCURVE",
"434 17 OFFCURVE",
"478 70 CURVE",
"482 70 LINE",
"482 -200 LINE",
"578 -200 LINE"
);
},
{
closed = 1;
nodes = (
"493 161 OFFCURVE",
"423 66 OFFCURVE",
"312 66 CURVE SMOOTH",
"201 66 OFFCURVE",
"130 160 OFFCURVE",
"130 292 CURVE SMOOTH",
"130 422 OFFCURVE",
"201 515 OFFCURVE",
"312 515 CURVE SMOOTH",
"423 515 OFFCURVE",
"493 421 OFFCURVE",
"493 292 CURVE SMOOTH"
);
}
);
width = 653;
}
);
leftKerningGroup = o;
leftMetricsKey = "=o";
rightKerningGroup = q;
rightMetricsKey = "=l";
unicode = 0071;
},
{
color = 4;
glyphname = r;
lastChange = "2018-11-01 23:02:29 +0000";
layers = (
{
background = {
paths = (
{
closed = 1;
nodes = (
"200 574 OFFCURVE",
"254 610 OFFCURVE",
"379 610 CURVE SMOOTH",
"430 610 LINE",
"430 524 LINE",
"352 524 LINE SMOOTH",
"250 524 OFFCURVE",
"169 469 OFFCURVE",
"169 315 CURVE SMOOTH",
"169 0 LINE",
"75 0 LINE",
"75 610 LINE",
"169 610 LINE",
"169 489 LINE",
"149 477 LINE"
);
}
);
};
layerId = "7ABB4463-F536-4E35-BA78-CBE550C7BEBE";
paths = (
{
closed = 1;
nodes = (
"218 581 OFFCURVE",
"279 610 OFFCURVE",
"348 610 CURVE SMOOTH",
"410 610 LINE",
"410 524 LINE",
"328 524 LINE SMOOTH",
"248 524 OFFCURVE",
"169 473 OFFCURVE",
"169 375 CURVE SMOOTH",
"169 0 LINE",
"75 0 LINE",
"75 610 LINE",
"169 610 LINE",
"169 507 LINE",
"172 507 LINE"
);
}
);
width = 425;
},
{
background = {
paths = (
{
closed = 1;
nodes = (
"208 574 OFFCURVE",
"262 610 OFFCURVE",
"387 610 CURVE SMOOTH",
"438 610 LINE",
"438 524 LINE",
"360 524 LINE SMOOTH",
"258 524 OFFCURVE",
"177 469 OFFCURVE",
"177 315 CURVE SMOOTH",
"177 0 LINE",
"83 0 LINE",
"83 610 LINE",
"177 610 LINE",
"177 489 LINE",
"157 477 LINE"
);
}
);
};
layerId = "3F9681A4-5725-441D-B9D2-8C7C614AC445";
paths = (
{
closed = 1;
nodes = (
"218 562 OFFCURVE",
"276 580 OFFCURVE",
"341 580 CURVE SMOOTH",
"400 580 LINE",
"400 488 LINE",
"322 488 LINE SMOOTH",
"236 488 OFFCURVE",
"171 439 OFFCURVE",
"171 346 CURVE SMOOTH",
"171 0 LINE",
"75 0 LINE",
"75 580 LINE",
"171 580 LINE",
"171 492 LINE",
"174 492 LINE"
);
}
);
width = 425;
}
);
leftKerningGroup = i;
leftMetricsKey = "=n";
rightKerningGroup = r;
unicode = 0072;
},
{
color = 4;
glyphname = s;
lastChange = "2018-11-05 21:00:08 +0000";
layers = (
{
background = {
paths = (
{
closed = 1;
nodes = (
"430 -15 OFFCURVE",
"529 54 OFFCURVE",
"527 170 CURVE SMOOTH",
"525 269 OFFCURVE",
"452 343 OFFCURVE",
"301 353 CURVE SMOOTH",
"188 360 OFFCURVE",
"137 392 OFFCURVE",
"137 449 CURVE SMOOTH",
"137 512 OFFCURVE",
"200 549 OFFCURVE",
"281 549 CURVE SMOOTH",
"380 549 OFFCURVE",
"435 484 OFFCURVE",
"435 401 CURVE",
"521 401 LINE",
"521 544 OFFCURVE",
"413 625 OFFCURVE",
"277 625 CURVE SMOOTH",
"124 625 OFFCURVE",
"42 534 OFFCURVE",
"42 437 CURVE SMOOTH",
"42 353 OFFCURVE",
"111 277 OFFCURVE",
"275 269 CURVE SMOOTH",
"394 263 OFFCURVE",
"429 213 OFFCURVE",
"429 161 CURVE SMOOTH",
"429 102 OFFCURVE",
"373 62 OFFCURVE",
"291 62 CURVE SMOOTH",
"206 62 OFFCURVE",
"131 117 OFFCURVE",
"131 212 CURVE",
"45 212 LINE",
"45 82 OFFCURVE",
"138 -15 OFFCURVE",
"287 -15 CURVE SMOOTH"
);
}
);
};
layerId = "7ABB4463-F536-4E35-BA78-CBE550C7BEBE";
paths = (
{
closed = 1;
nodes = (
"435 -15 OFFCURVE",
"527 56 OFFCURVE",
"527 176 CURVE SMOOTH",
"527 259 OFFCURVE",
"477 325 OFFCURVE",
"362 342 CURVE SMOOTH",
"244 359 LINE SMOOTH",
"169 370 OFFCURVE",
"140 401 OFFCURVE",
"140 445 CURVE SMOOTH",
"140 507 OFFCURVE",
"198 549 OFFCURVE",
"277 549 CURVE SMOOTH",
"380 549 OFFCURVE",
"437 483 OFFCURVE",
"437 395 CURVE",
"525 395 LINE",
"525 542 OFFCURVE",
"417 625 OFFCURVE",
"281 625 CURVE SMOOTH",
"131 625 OFFCURVE",
"46 537 OFFCURVE",
"46 442 CURVE SMOOTH",
"46 366 OFFCURVE",
"100 293 OFFCURVE",
"231 275 CURVE SMOOTH",
"347 259 LINE SMOOTH",
"414 250 OFFCURVE",
"437 214 OFFCURVE",
"437 176 CURVE SMOOTH",
"437 109 OFFCURVE",
"380 63 OFFCURVE",
"301 63 CURVE SMOOTH",
"213 63 OFFCURVE",
"133 116 OFFCURVE",
"133 218 CURVE",
"45 218 LINE",
"45 85 OFFCURVE",
"138 -15 OFFCURVE",
"292 -15 CURVE SMOOTH"
);
}
);
width = 557;
},
{
background = {
paths = (
{
closed = 1;
nodes = (
"433 -15 OFFCURVE",
"532 54 OFFCURVE",
"530 170 CURVE SMOOTH",
"528 269 OFFCURVE",
"455 343 OFFCURVE",
"304 353 CURVE SMOOTH",
"191 360 OFFCURVE",
"140 392 OFFCURVE",
"140 449 CURVE SMOOTH",
"140 512 OFFCURVE",
"203 549 OFFCURVE",
"284 549 CURVE SMOOTH",
"383 549 OFFCURVE",
"438 484 OFFCURVE",
"438 401 CURVE",
"524 401 LINE",
"524 544 OFFCURVE",
"416 625 OFFCURVE",
"280 625 CURVE SMOOTH",
"127 625 OFFCURVE",
"45 534 OFFCURVE",
"45 437 CURVE SMOOTH",
"45 353 OFFCURVE",
"114 277 OFFCURVE",
"278 269 CURVE SMOOTH",
"397 263 OFFCURVE",
"432 213 OFFCURVE",
"432 161 CURVE SMOOTH",
"432 102 OFFCURVE",
"376 62 OFFCURVE",
"294 62 CURVE SMOOTH",
"209 62 OFFCURVE",
"134 117 OFFCURVE",
"134 212 CURVE",
"48 212 LINE",
"48 82 OFFCURVE",
"141 -15 OFFCURVE",
"290 -15 CURVE SMOOTH"
);
}
);
};
layerId = "3F9681A4-5725-441D-B9D2-8C7C614AC445";
paths = (
{
closed = 1;
nodes = (
"423 -15 OFFCURVE",
"513 53 OFFCURVE",
"513 167 CURVE SMOOTH",
"513 247 OFFCURVE",
"463 311 OFFCURVE",
"351 327 CURVE SMOOTH",
"238 343 LINE SMOOTH",
"169 354 OFFCURVE",
"142 382 OFFCURVE",
"142 423 CURVE SMOOTH",
"142 479 OFFCURVE",
"196 517 OFFCURVE",
"270 517 CURVE SMOOTH",
"364 517 OFFCURVE",
"416 468 OFFCURVE",
"416 404 CURVE",
"507 404 LINE",
"507 526 OFFCURVE",
"404 595 OFFCURVE",
"273 595 CURVE SMOOTH",
"131 595 OFFCURVE",
"50 511 OFFCURVE",
"50 420 CURVE SMOOTH",
"50 347 OFFCURVE",
"101 276 OFFCURVE",
"226 259 CURVE SMOOTH",
"336 244 LINE SMOOTH",
"400 235 OFFCURVE",
"422 202 OFFCURVE",
"422 167 CURVE SMOOTH",
"422 105 OFFCURVE",
"368 63 OFFCURVE",
"292 63 CURVE SMOOTH",
"217 63 OFFCURVE",
"150 99 OFFCURVE",
"148 168 CURVE",
"58 168 LINE",
"58 63 OFFCURVE",
"143 -15 OFFCURVE",
"284 -15 CURVE SMOOTH"
);
}
);
width = 563;
}
);
leftKerningGroup = s;
rightKerningGroup = s;
unicode = 0073;
},
{
color = 4;
glyphname = t;
lastChange = "2018-11-01 23:01:35 +0000";
layers = (
{
layerId = "7ABB4463-F536-4E35-BA78-CBE550C7BEBE";
paths = (
{
closed = 1;
nodes = (
"148 528 LINE",
"123 553 LINE",
"123 169 LINE SMOOTH",
"123 61 OFFCURVE",
"179 0 OFFCURVE",
"281 0 CURVE SMOOTH",
"391 0 LINE",
"391 86 LINE",
"297 86 LINE SMOOTH",
"233 86 OFFCURVE",
"217 104 OFFCURVE",
"217 169 CURVE SMOOTH",
"217 553 LINE",
"192 528 LINE",
"368 528 LINE",
"368 610 LINE",
"192 610 LINE",
"217 585 LINE",
"217 750 LINE",
"123 750 LINE",
"123 585 LINE",
"148 610 LINE",
"20 610 LINE",
"20 528 LINE"
);
}
);
width = 416;
},
{
background = {
paths = (
{
closed = 1;
nodes = (
"148 502 LINE",
"124 525 LINE",
"124 161 LINE SMOOTH",
"124 58 OFFCURVE",
"178 0 OFFCURVE",
"274 0 CURVE SMOOTH",
"379 0 LINE",
"379 82 LINE",
"290 82 LINE SMOOTH",
"229 82 OFFCURVE",
"214 99 OFFCURVE",
"214 161 CURVE SMOOTH",
"214 525 LINE",
"190 502 LINE",
"357 502 LINE",
"357 580 LINE",
"190 580 LINE",
"214 556 LINE",
"214 720 LINE",
"124 720 LINE",
"124 556 LINE",
"148 580 LINE",
"26 580 LINE",
"26 502 LINE"
);
}
);
};
layerId = "3F9681A4-5725-441D-B9D2-8C7C614AC445";
paths = (
{
closed = 1;
nodes = (
"143 500 LINE",
"118 525 LINE",
"118 129 LINE SMOOTH",
"118 36 OFFCURVE",
"152 0 OFFCURVE",
"238 0 CURVE SMOOTH",
"368 0 LINE",
"368 80 LINE",
"274 80 LINE SMOOTH",
"226 80 OFFCURVE",
"214 92 OFFCURVE",
"214 141 CURVE SMOOTH",
"214 525 LINE",
"189 500 LINE",
"357 500 LINE",
"357 580 LINE",
"189 580 LINE",
"214 555 LINE",
"214 740 LINE",
"118 740 LINE",
"118 555 LINE",
"143 580 LINE",
"20 580 LINE",
"20 500 LINE"
);
}
);
width = 403;
}
);
leftKerningGroup = t;
rightKerningGroup = t;
unicode = 0074;
},
{
color = 4;
glyphname = u;
lastChange = "2018-11-01 22:26:53 +0000";
layers = (
{
background = {
paths = (
{
closed = 1;
nodes = (
"437 23 OFFCURVE",
"355 -15 OFFCURVE",
"273 -15 CURVE SMOOTH",
"135 -15 OFFCURVE",
"70 83 OFFCURVE",
"70 226 CURVE SMOOTH",
"70 610 LINE",
"164 610 LINE",
"164 244 LINE SMOOTH",
"164 126 OFFCURVE",
"204 69 OFFCURVE",
"300 69 CURVE SMOOTH",
"381 69 OFFCURVE",
"473 128 OFFCURVE",
"473 285 CURVE SMOOTH",
"473 610 LINE",
"567 610 LINE",
"567 0 LINE",
"473 0 LINE",
"473 111 LINE",
"493 123 LINE"
);
}
);
};
layerId = "7ABB4463-F536-4E35-BA78-CBE550C7BEBE";
paths = (
{
closed = 1;
nodes = (
"422 14 OFFCURVE",
"355 -15 OFFCURVE",
"286 -15 CURVE SMOOTH",
"148 -15 OFFCURVE",
"70 83 OFFCURVE",
"70 226 CURVE SMOOTH",
"70 610 LINE",
"164 610 LINE",
"164 244 LINE SMOOTH",
"164 138 OFFCURVE",
"210 65 OFFCURVE",
"310 65 CURVE SMOOTH",
"392 65 OFFCURVE",
"473 121 OFFCURVE",
"473 229 CURVE SMOOTH",
"473 610 LINE",
"567 610 LINE",
"567 0 LINE",
"473 0 LINE",
"473 88 LINE",
"470 88 LINE"
);
}
);
width = 642;
},
{
background = {
paths = (
{
closed = 1;
nodes = (
"432 23 OFFCURVE",
"350 -15 OFFCURVE",
"268 -15 CURVE SMOOTH",
"130 -15 OFFCURVE",
"65 83 OFFCURVE",
"65 226 CURVE SMOOTH",
"65 610 LINE",
"159 610 LINE",
"159 244 LINE SMOOTH",
"159 126 OFFCURVE",
"199 69 OFFCURVE",
"295 69 CURVE SMOOTH",
"376 69 OFFCURVE",
"468 128 OFFCURVE",
"468 285 CURVE SMOOTH",
"468 610 LINE",
"562 610 LINE",
"562 0 LINE",
"468 0 LINE",
"468 111 LINE",
"488 123 LINE"
);
}
);
};
layerId = "3F9681A4-5725-441D-B9D2-8C7C614AC445";
paths = (
{
closed = 1;
nodes = (
"397 13 OFFCURVE",
"340 -15 OFFCURVE",
"265 -15 CURVE SMOOTH",
"156 -15 OFFCURVE",
"70 73 OFFCURVE",
"70 185 CURVE SMOOTH",
"70 580 LINE",
"166 580 LINE",
"166 223 LINE SMOOTH",
"166 129 OFFCURVE",
"212 71 OFFCURVE",
"297 71 CURVE SMOOTH",
"384 71 OFFCURVE",
"451 139 OFFCURVE",
"451 219 CURVE SMOOTH",
"451 580 LINE",
"547 580 LINE",
"547 0 LINE",
"453 0 LINE",
"453 83 LINE",
"450 83 LINE"
);
}
);
width = 622;
}
);
leftKerningGroup = u;
rightKerningGroup = i;
unicode = 0075;
},
{
color = 4;
glyphname = v;
lastChange = "2018-11-05 20:36:31 +0000";
layers = (
{
layerId = "7ABB4463-F536-4E35-BA78-CBE550C7BEBE";
paths = (
{
closed = 1;
nodes = (
"281 116 OFFCURVE",
"276 132 OFFCURVE",
"272 145 CURVE SMOOTH",
"115 610 LINE",
"15 610 LINE",
"236 0 LINE",
"332 0 LINE",
"553 610 LINE",
"453 610 LINE",
"296 145 LINE SMOOTH",
"292 132 OFFCURVE",
"287 116 OFFCURVE",
"286 103 CURVE",
"282 103 LINE"
);
}
);
width = 568;
},
{
layerId = "3F9681A4-5725-441D-B9D2-8C7C614AC445";
paths = (
{
closed = 1;
nodes = (
"117 580 LINE",
"15 580 LINE",
"220 0 LINE",
"328 0 LINE",
"533 580 LINE",
"431 580 LINE",
"276 109 LINE",
"272 109 LINE"
);
}
);
width = 548;
}
);
leftKerningGroup = v;
rightKerningGroup = v;
unicode = 0076;
},
{
color = 3;
glyphname = w;
lastChange = "2018-11-01 20:08:26 +0000";
layers = (
{
layerId = "7ABB4463-F536-4E35-BA78-CBE550C7BEBE";
paths = (
{
closed = 1;
nodes = (
"436 500 OFFCURVE",
"437 489 OFFCURVE",
"440 477 CURVE SMOOTH",
"574 0 LINE",
"670 0 LINE",
"861 610 LINE",
"761 610 LINE",
"631 145 LINE SMOOTH",
"628 134 OFFCURVE",
"627 125 OFFCURVE",
"626 115 CURVE",
"622 115 LINE",
"621 125 OFFCURVE",
"620 134 OFFCURVE",
"617 145 CURVE SMOOTH",
"486 610 LINE",
"380 610 LINE",
"249 145 LINE SMOOTH",
"246 134 OFFCURVE",
"245 125 OFFCURVE",
"244 115 CURVE",
"240 115 LINE",
"239 125 OFFCURVE",
"238 134 OFFCURVE",
"235 145 CURVE SMOOTH",
"105 610 LINE",
"5 610 LINE",
"196 0 LINE",
"292 0 LINE",
"426 477 LINE SMOOTH",
"429 489 OFFCURVE",
"430 500 OFFCURVE",
"431 512 CURVE",
"435 512 LINE"
);
}
);
width = 866;
},
{
layerId = "3F9681A4-5725-441D-B9D2-8C7C614AC445";
paths = (
{
closed = 1;
nodes = (
"432 476 OFFCURVE",
"433 465 OFFCURVE",
"436 454 CURVE SMOOTH",
"564 0 LINE",
"655 0 LINE",
"837 580 LINE",
"742 580 LINE",
"618 138 LINE SMOOTH",
"615 127 OFFCURVE",
"614 119 OFFCURVE",
"613 109 CURVE",
"609 109 LINE",
"608 119 OFFCURVE",
"608 127 OFFCURVE",
"605 138 CURVE SMOOTH",
"480 580 LINE",
"379 580 LINE",
"255 138 LINE SMOOTH",
"252 127 OFFCURVE",
"251 119 OFFCURVE",
"250 109 CURVE",
"246 109 LINE",
"245 119 OFFCURVE",
"244 127 OFFCURVE",
"241 138 CURVE SMOOTH",
"118 580 LINE",
"22 580 LINE",
"204 0 LINE",
"295 0 LINE",
"423 454 LINE SMOOTH",
"426 465 OFFCURVE",
"427 476 OFFCURVE",
"428 487 CURVE",
"432 487 LINE"
);
}
);
width = 866;
}
);
leftKerningGroup = v;
rightKerningGroup = v;
unicode = 0077;
},
{
color = 3;
glyphname = x;
lastChange = "2018-11-01 20:09:04 +0000";
layers = (
{
layerId = "7ABB4463-F536-4E35-BA78-CBE550C7BEBE";
paths = (
{
closed = 1;
nodes = (
"292 255 LINE",
"295 242 OFFCURVE",
"299 234 OFFCURVE",
"306 223 CURVE SMOOTH",
"449 0 LINE",
"560 0 LINE",
"335 333 LINE",
"335 293 LINE",
"546 610 LINE",
"440 610 LINE",
"310 404 LINE SMOOTH",
"303 393 OFFCURVE",
"299 384 OFFCURVE",
"296 371 CURVE",
"292 371 LINE",
"289 384 OFFCURVE",
"284 393 OFFCURVE",
"277 404 CURVE SMOOTH",
"146 610 LINE",
"40 610 LINE",
"253 293 LINE",
"253 333 LINE",
"20 0 LINE",
"131 0 LINE",
"274 223 LINE SMOOTH",
"281 234 OFFCURVE",
"285 242 OFFCURVE",
"288 255 CURVE"
);
}
);
width = 580;
},
{
layerId = "3F9681A4-5725-441D-B9D2-8C7C614AC445";
paths = (
{
closed = 1;
nodes = (
"295 243 LINE",
"298 230 OFFCURVE",
"302 223 OFFCURVE",
"309 212 CURVE SMOOTH",
"445 0 LINE",
"550 0 LINE",
"336 317 LINE",
"336 279 LINE",
"537 580 LINE",
"436 580 LINE",
"313 384 LINE SMOOTH",
"306 374 OFFCURVE",
"302 365 OFFCURVE",
"299 353 CURVE",
"295 353 LINE",
"293 365 OFFCURVE",
"288 374 OFFCURVE",
"281 384 CURVE SMOOTH",
"157 580 LINE",
"56 580 LINE",
"258 279 LINE",
"258 317 LINE",
"37 0 LINE",
"142 0 LINE",
"278 212 LINE SMOOTH",
"285 223 OFFCURVE",
"289 230 OFFCURVE",
"292 243 CURVE"
);
}
);
width = 580;
}
);
leftKerningGroup = x;
rightKerningGroup = x;
unicode = 0078;
},
{
color = 4;
glyphname = y;
lastChange = "2018-11-01 23:02:05 +0000";
layers = (
{
background = {
paths = (
{
closed = 1;
nodes = (
"251 -42 LINE",
"253 42 LINE",
"224 -31 LINE",
"327 -15 LINE",
"553 610 LINE",
"453 610 LINE",
"267 68 LINE",
"301 68 LINE",
"115 610 LINE",
"15 610 LINE"
);
},
{
closed = 0;
nodes = (
"224 -31 LINE SMOOTH",
"224 -96 OFFCURVE",
"208 -114 OFFCURVE",
"144 -114 CURVE SMOOTH",
"70 -114 LINE",
"70 -200 LINE",
"160 -200 LINE SMOOTH",
"262 -200 OFFCURVE",
"319 -118 OFFCURVE",
"319 29 CURVE SMOOTH"
);
}
);
};
layerId = "7ABB4463-F536-4E35-BA78-CBE550C7BEBE";
paths = (
{
closed = 1;
nodes = (
"242 -18 LINE",
"242 6 LINE",
"219 -53 LINE SMOOTH",
"197 -108 OFFCURVE",
"170 -114 OFFCURVE",
"124 -114 CURVE SMOOTH",
"50 -114 LINE",
"50 -200 LINE",
"140 -200 LINE SMOOTH",
"242 -200 OFFCURVE",
"268 -178 OFFCURVE",
"327 -15 CURVE SMOOTH",
"553 610 LINE",
"453 610 LINE",
"295 145 LINE SMOOTH",
"291 132 OFFCURVE",
"288 117 OFFCURVE",
"286 103 CURVE",
"282 103 LINE",
"280 117 OFFCURVE",
"277 132 OFFCURVE",
"273 145 CURVE SMOOTH",
"115 610 LINE",
"15 610 LINE"
);
}
);
width = 568;
},
{
background = {
paths = (
{
closed = 1;
nodes = (
"266 -42 LINE",
"268 42 LINE",
"239 -31 LINE",
"342 -15 LINE",
"568 610 LINE",
"468 610 LINE",
"282 68 LINE",
"316 68 LINE",
"130 610 LINE",
"30 610 LINE"
);
},
{
closed = 0;
nodes = (
"239 -31 LINE SMOOTH",
"239 -96 OFFCURVE",
"223 -114 OFFCURVE",
"159 -114 CURVE SMOOTH",
"85 -114 LINE",
"85 -200 LINE",
"175 -200 LINE SMOOTH",
"277 -200 OFFCURVE",
"334 -118 OFFCURVE",
"334 29 CURVE SMOOTH"
);
}
);
};
layerId = "3F9681A4-5725-441D-B9D2-8C7C614AC445";
paths = (
{
closed = 1;
nodes = (
"245 -15 LINE",
"245 8 LINE",
"209 -89 LINE SMOOTH",
"201 -111 OFFCURVE",
"193 -116 OFFCURVE",
"167 -116 CURVE SMOOTH",
"64 -116 LINE",
"64 -200 LINE",
"201 -200 LINE SMOOTH",
"245 -200 OFFCURVE",
"272 -182 OFFCURVE",
"298 -112 CURVE SMOOTH",
"559 580 LINE",
"455 580 LINE",
"291 122 LINE",
"288 122 LINE",
"124 580 LINE",
"20 580 LINE"
);
}
);
width = 564;
}
);
leftKerningGroup = v;
rightKerningGroup = v;
unicode = 0079;
},
{
color = 3;
glyphname = z;
lastChange = "2018-11-01 20:09:33 +0000";
layers = (
{
layerId = "7ABB4463-F536-4E35-BA78-CBE550C7BEBE";
paths = (
{
closed = 1;
nodes = (
"161 79 OFFCURVE",
"181 80 OFFCURVE",
"198 80 CURVE SMOOTH",
"516 80 LINE",
"516 0 LINE",
"45 0 LINE",
"45 82 LINE",
"371 501 LINE SMOOTH",
"379 511 OFFCURVE",
"391 522 OFFCURVE",
"403 530 CURVE",
"401 534 LINE",
"388 530 OFFCURVE",
"368 529 OFFCURVE",
"351 529 CURVE SMOOTH",
"62 529 LINE",
"62 611 LINE",
"501 611 LINE",
"501 530 LINE",
"178 108 LINE SMOOTH",
"170 98 OFFCURVE",
"158 87 OFFCURVE",
"146 79 CURVE",
"148 75 LINE"
);
}
);
width = 558;
},
{
layerId = "3F9681A4-5725-441D-B9D2-8C7C614AC445";
paths = (
{
closed = 1;
nodes = (
"181 75 OFFCURVE",
"200 76 OFFCURVE",
"216 76 CURVE SMOOTH",
"517 76 LINE",
"517 0 LINE",
"71 0 LINE",
"71 78 LINE",
"380 475 LINE SMOOTH",
"387 485 OFFCURVE",
"399 495 OFFCURVE",
"410 503 CURVE",
"408 507 LINE",
"396 503 OFFCURVE",
"377 502 OFFCURVE",
"361 502 CURVE SMOOTH",
"87 502 LINE",
"87 580 LINE",
"503 580 LINE",
"503 503 LINE",
"197 102 LINE SMOOTH",
"189 93 OFFCURVE",
"178 83 OFFCURVE",
"166 75 CURVE",
"168 71 LINE"
);
}
);
width = 558;
}
);
leftKerningGroup = z;
rightKerningGroup = z;
unicode = 007A;
},
{
color = 3;
glyphname = a.alt;
lastChange = "2018-11-01 18:51:06 +0000";
layers = (
{
background = {
paths = (
{
closed = 1;
nodes = (
"499 610 LINE",
"499 499 LINE",
"520 487 LINE",
"474 575 OFFCURVE",
"394 625 OFFCURVE",
"296 625 CURVE SMOOTH",
"135 625 OFFCURVE",
"40 487 OFFCURVE",
"40 307 CURVE SMOOTH",
"40 125 OFFCURVE",
"135 -15 OFFCURVE",
"313 -15 CURVE SMOOTH",
"405 -15 OFFCURVE",
"472 23 OFFCURVE",
"515 96 CURVE",
"499 120 LINE",
"504 80 OFFCURVE",
"508 34 OFFCURVE",
"514 0 CURVE",
"608 0 LINE",
"599 63 OFFCURVE",
"594 115 OFFCURVE",
"594 183 CURVE",
"594 610 LINE"
);
},
{
closed = 1;
nodes = (
"505 156 OFFCURVE",
"430 60 OFFCURVE",
"323 60 CURVE SMOOTH",
"219 60 OFFCURVE",
"140 155 OFFCURVE",
"140 307 CURVE SMOOTH",
"140 456 OFFCURVE",
"219 550 OFFCURVE",
"323 550 CURVE SMOOTH",
"430 550 OFFCURVE",
"505 456 OFFCURVE",
"505 307 CURVE SMOOTH"
);
}
);
};
layerId = "7ABB4463-F536-4E35-BA78-CBE550C7BEBE";
paths = (
{
closed = 1;
nodes = (
"503 61 OFFCURVE",
"507 33 OFFCURVE",
"514 0 CURVE",
"609 0 LINE",
"598 61 OFFCURVE",
"594 117 OFFCURVE",
"594 183 CURVE SMOOTH",
"594 610 LINE",
"499 610 LINE",
"499 513 LINE",
"495 513 LINE",
"448 585 OFFCURVE",
"380 625 OFFCURVE",
"298 625 CURVE SMOOTH",
"135 625 OFFCURVE",
"40 487 OFFCURVE",
"40 307 CURVE SMOOTH",
"40 125 OFFCURVE",
"135 -15 OFFCURVE",
"303 -15 CURVE SMOOTH",
"380 -15 OFFCURVE",
"460 26 OFFCURVE",
"498 99 CURVE",
"502 99 LINE"
);
},
{
closed = 1;
nodes = (
"506 155 OFFCURVE",
"431 59 OFFCURVE",
"323 59 CURVE SMOOTH",
"216 59 OFFCURVE",
"138 151 OFFCURVE",
"138 306 CURVE SMOOTH",
"138 455 OFFCURVE",
"219 549 OFFCURVE",
"323 549 CURVE SMOOTH",
"431 549 OFFCURVE",
"506 455 OFFCURVE",
"506 306 CURVE SMOOTH"
);
}
);
width = 659;
},
{
background = {
paths = (
{
closed = 1;
nodes = (
"499 610 LINE",
"499 499 LINE",
"520 487 LINE",
"474 575 OFFCURVE",
"394 625 OFFCURVE",
"296 625 CURVE SMOOTH",
"135 625 OFFCURVE",
"40 487 OFFCURVE",
"40 307 CURVE SMOOTH",
"40 125 OFFCURVE",
"135 -15 OFFCURVE",
"313 -15 CURVE SMOOTH",
"405 -15 OFFCURVE",
"472 23 OFFCURVE",
"515 96 CURVE",
"499 120 LINE",
"504 80 OFFCURVE",
"508 34 OFFCURVE",
"514 0 CURVE",
"608 0 LINE",
"599 63 OFFCURVE",
"594 115 OFFCURVE",
"594 183 CURVE",
"594 610 LINE"
);
},
{
closed = 1;
nodes = (
"505 156 OFFCURVE",
"430 60 OFFCURVE",
"323 60 CURVE SMOOTH",
"219 60 OFFCURVE",
"140 155 OFFCURVE",
"140 307 CURVE SMOOTH",
"140 456 OFFCURVE",
"219 550 OFFCURVE",
"323 550 CURVE SMOOTH",
"430 550 OFFCURVE",
"505 456 OFFCURVE",
"505 307 CURVE SMOOTH"
);
}
);
};
layerId = "3F9681A4-5725-441D-B9D2-8C7C614AC445";
paths = (
{
closed = 1;
nodes = (
"503 61 OFFCURVE",
"507 33 OFFCURVE",
"514 0 CURVE",
"609 0 LINE",
"598 61 OFFCURVE",
"594 117 OFFCURVE",
"594 183 CURVE SMOOTH",
"594 610 LINE",
"499 610 LINE",
"499 513 LINE",
"495 513 LINE",
"448 585 OFFCURVE",
"380 625 OFFCURVE",
"298 625 CURVE SMOOTH",
"135 625 OFFCURVE",
"40 487 OFFCURVE",
"40 307 CURVE SMOOTH",
"40 125 OFFCURVE",
"135 -15 OFFCURVE",
"303 -15 CURVE SMOOTH",
"380 -15 OFFCURVE",
"460 26 OFFCURVE",
"498 99 CURVE",
"502 99 LINE"
);
},
{
closed = 1;
nodes = (
"506 155 OFFCURVE",
"431 59 OFFCURVE",
"323 59 CURVE SMOOTH",
"216 59 OFFCURVE",
"138 151 OFFCURVE",
"138 306 CURVE SMOOTH",
"138 455 OFFCURVE",
"219 549 OFFCURVE",
"323 549 CURVE SMOOTH",
"431 549 OFFCURVE",
"506 455 OFFCURVE",
"506 306 CURVE SMOOTH"
);
}
);
width = 659;
}
);
leftMetricsKey = "=d";
rightMetricsKey = "=d";
},
{
color = 3;
glyphname = i.alt;
lastChange = "2018-11-01 18:51:06 +0000";
layers = (
{
layerId = "7ABB4463-F536-4E35-BA78-CBE550C7BEBE";
paths = (
{
closed = 1;
nodes = (
"47 654 LINE",
"194 654 LINE",
"194 800 LINE",
"47 800 LINE"
);
},
{
closed = 1;
nodes = (
"73 0 LINE",
"167 0 LINE",
"167 572 LINE",
"73 572 LINE"
);
}
);
width = 241;
},
{
layerId = "3F9681A4-5725-441D-B9D2-8C7C614AC445";
paths = (
{
closed = 1;
nodes = (
"47 654 LINE",
"194 654 LINE",
"194 800 LINE",
"47 800 LINE"
);
},
{
closed = 1;
nodes = (
"73 0 LINE",
"167 0 LINE",
"167 572 LINE",
"73 572 LINE"
);
}
);
width = 241;
}
);
},
{
color = 3;
glyphname = j.alt;
lastChange = "2018-11-01 18:51:06 +0000";
layers = (
{
layerId = "7ABB4463-F536-4E35-BA78-CBE550C7BEBE";
paths = (
{
closed = 1;
nodes = (
"63 654 LINE",
"210 654 LINE",
"210 800 LINE",
"63 800 LINE"
);
},
{
closed = 1;
nodes = (
"25 -200 LINE SMOOTH",
"127 -200 OFFCURVE",
"183 -139 OFFCURVE",
"183 -31 CURVE SMOOTH",
"183 572 LINE",
"89 572 LINE",
"89 -31 LINE SMOOTH",
"89 -96 OFFCURVE",
"73 -114 OFFCURVE",
"9 -114 CURVE SMOOTH",
"-65 -114 LINE",
"-65 -200 LINE"
);
}
);
width = 257;
},
{
layerId = "3F9681A4-5725-441D-B9D2-8C7C614AC445";
paths = (
{
closed = 1;
nodes = (
"63 654 LINE",
"210 654 LINE",
"210 800 LINE",
"63 800 LINE"
);
},
{
closed = 1;
nodes = (
"25 -200 LINE SMOOTH",
"127 -200 OFFCURVE",
"183 -139 OFFCURVE",
"183 -31 CURVE SMOOTH",
"183 572 LINE",
"89 572 LINE",
"89 -31 LINE SMOOTH",
"89 -96 OFFCURVE",
"73 -114 OFFCURVE",
"9 -114 CURVE SMOOTH",
"-65 -114 LINE",
"-65 -200 LINE"
);
}
);
width = 257;
}
);
rightMetricsKey = "=i.alt";
},
{
color = 3;
glyphname = comma;
lastChange = "2018-11-01 18:51:06 +0000";
layers = (
{
layerId = "7ABB4463-F536-4E35-BA78-CBE550C7BEBE";
paths = (
{
closed = 1;
nodes = (
"46 -103 LINE",
"77 -103 LINE SMOOTH",
"115 -103 OFFCURVE",
"125 -86 OFFCURVE",
"125 -47 CURVE SMOOTH",
"125 25 LINE",
"150 0 LINE",
"58 0 LINE",
"58 128 LINE",
"182 128 LINE",
"182 -49 LINE SMOOTH",
"182 -116 OFFCURVE",
"162 -159 OFFCURVE",
"77 -159 CURVE SMOOTH",
"46 -159 LINE"
);
}
);
width = 240;
},
{
layerId = "3F9681A4-5725-441D-B9D2-8C7C614AC445";
paths = (
{
closed = 1;
nodes = (
"46 -103 LINE",
"77 -103 LINE SMOOTH",
"115 -103 OFFCURVE",
"125 -86 OFFCURVE",
"125 -47 CURVE SMOOTH",
"125 25 LINE",
"150 0 LINE",
"58 0 LINE",
"58 128 LINE",
"182 128 LINE",
"182 -49 LINE SMOOTH",
"182 -116 OFFCURVE",
"162 -159 OFFCURVE",
"77 -159 CURVE SMOOTH",
"46 -159 LINE"
);
}
);
width = 240;
}
);
leftKerningGroup = period;
rightKerningGroup = period;
unicode = 002C;
},
{
color = 3;
glyphname = period;
lastChange = "2018-11-01 18:51:06 +0000";
layers = (
{
layerId = "7ABB4463-F536-4E35-BA78-CBE550C7BEBE";
paths = (
{
closed = 1;
nodes = (
"182 128 LINE",
"182 0 LINE",
"58 0 LINE",
"58 128 LINE"
);
}
);
width = 240;
},
{
layerId = "3F9681A4-5725-441D-B9D2-8C7C614AC445";
paths = (
{
closed = 1;
nodes = (
"182 128 LINE",
"182 0 LINE",
"58 0 LINE",
"58 128 LINE"
);
}
);
width = 240;
}
);
leftKerningGroup = period;
rightKerningGroup = period;
unicode = 002E;
},
{
color = 3;
glyphname = period.alt;
lastChange = "2018-11-01 18:51:06 +0000";
layers = (
{
layerId = "7ABB4463-F536-4E35-BA78-CBE550C7BEBE";
paths = (
{
closed = 1;
nodes = (
"224 171 LINE",
"224 0 LINE",
"58 0 LINE",
"58 171 LINE"
);
}
);
width = 282;
},
{
layerId = "3F9681A4-5725-441D-B9D2-8C7C614AC445";
paths = (
{
closed = 1;
nodes = (
"224 171 LINE",
"224 0 LINE",
"58 0 LINE",
"58 171 LINE"
);
}
);
width = 282;
}
);
leftKerningGroup = period;
leftMetricsKey = "=period";
rightKerningGroup = period;
rightMetricsKey = "=period";
},
{
glyphname = .notdef;
lastChange = "2018-11-01 18:51:06 +0000";
layers = (
{
layerId = "7ABB4463-F536-4E35-BA78-CBE550C7BEBE";
paths = (
{
closed = 1;
nodes = (
"0 -160 LINE",
"410 -160 LINE",
"410 800 LINE",
"0 800 LINE"
);
},
{
closed = 1;
nodes = (
"380 770 LINE",
"380 -130 LINE",
"30 -130 LINE",
"30 770 LINE"
);
},
{
closed = 1;
nodes = (
"390 -140 LINE",
"40 -140 LINE",
"40 -200 LINE",
"450 -200 LINE",
"450 760 LINE",
"390 760 LINE"
);
}
);
width = 450;
},
{
layerId = "3F9681A4-5725-441D-B9D2-8C7C614AC445";
paths = (
{
closed = 1;
nodes = (
"0 -160 LINE",
"410 -160 LINE",
"410 800 LINE",
"0 800 LINE"
);
},
{
closed = 1;
nodes = (
"380 770 LINE",
"380 -130 LINE",
"30 -130 LINE",
"30 770 LINE"
);
},
{
closed = 1;
nodes = (
"390 -140 LINE",
"40 -140 LINE",
"40 -200 LINE",
"450 -200 LINE",
"450 760 LINE",
"390 760 LINE"
);
}
);
width = 450;
}
);
},
